<svg width="30" height="30" viewBox="0 0 30 30" fill="none" xmlns="http://www.w3.org/2000/svg">
<g clip-path="url(#clip0_298:74554)">
<path d="M4.80004 6.60004L6.60004 4.80004V4.20004L7.20004 3.00004L7.80004 2.40004L9.00004 1.80004L10.8 2.40004H12L12.6 1.80004L13.8 0.600037H15H16.2L17.4 1.80004L18.6 2.40004H19.8L20.4 1.80004H21.6L22.8 3.00004L24 5.40004L25.2 6.60004L27 7.20004L27.6 8.40004V12L29.4 13.8V16.2L27.6 18V19.2V21V22.2L26.4 23.4L24 24L23.4 25.8L22.2 27.6H19.8H18L16.2 29.4H14.4L12.6 28.2L11.4 27.6H10.2H9.00004H7.20004L6.60004 26.4L6.00004 24.6L5.40004 24L3.60004 23.4L2.40004 22.2L1.80004 21L2.40004 19.8V18L1.80004 17.4L0.600037 16.2V13.8L2.40004 12V9.00004V7.20004L4.80004 6.60004Z" fill="#FFECE7"/>
<path d="M15.5199 -0.0198975C16.3599 0.190103 16.9799 0.660103 17.4699 1.3701C17.9699 2.1001 18.9399 2.3001 19.8099 1.8901C20.4299 1.6001 21.0599 1.5101 21.7199 1.6601C22.9599 1.9301 23.8499 2.9901 23.9199 4.2601C23.9699 5.2401 24.7299 6.0001 25.7098 6.0501C27.7098 6.1601 28.9498 8.2101 28.1298 10.0401C27.9898 10.3501 27.8898 10.6501 27.8798 10.9901C27.8698 11.6701 28.1498 12.2001 28.7098 12.5801C29.3698 13.0301 29.8198 13.6301 29.9598 14.4201C30.1598 15.5101 29.8298 16.4201 28.9898 17.1501C28.9198 17.2101 28.8398 17.2701 28.7598 17.3301C27.8798 17.9501 27.6398 18.8401 28.0898 19.8201C28.6898 21.1401 28.3298 22.5701 27.1798 23.3901C26.7398 23.7001 26.2498 23.8701 25.6998 23.9001C24.7298 23.9501 23.9699 24.7101 23.9099 25.6601C23.7799 27.7201 21.7399 28.9501 19.8599 28.0801C19.4199 27.8801 18.9799 27.8101 18.5199 27.9001C17.9999 28.0001 17.6199 28.3301 17.3199 28.7601C16.5399 29.8801 15.1999 30.2901 13.9599 29.8101C13.4199 29.6001 12.9899 29.2401 12.6499 28.7701C12.0099 27.8601 11.1299 27.6301 10.1099 28.0901C8.21994 28.9501 6.18995 27.7301 6.05996 25.6601C5.99996 24.7101 5.23996 23.9601 4.29997 23.9001C2.23998 23.7701 1.01998 21.7301 1.87998 19.8501C2.33998 18.8301 2.10998 17.9501 1.19998 17.3201C0.559987 16.8701 0.189989 16.2501 -0.0100098 15.5101C-0.0100098 15.1601 -0.0100098 14.8101 -0.0100098 14.4601C0.189989 13.6201 0.649986 12.9701 1.38998 12.5101C1.49998 12.4401 1.59998 12.3301 1.67998 12.2301C2.19998 11.5701 2.21998 10.8601 1.87998 10.1101C1.01998 8.2201 2.22998 6.1901 4.29997 6.0601C5.25996 6.0001 6.00996 5.2401 6.05996 4.2701C6.12995 3.0001 7.00995 1.9401 8.24994 1.6601C8.90994 1.5101 9.53994 1.6001 10.1599 1.8901C11.0299 2.3001 11.9999 2.1001 12.4999 1.3701C12.9899 0.660103 13.6199 0.180103 14.4499 -0.0198975C14.8099 -0.0198975 15.1599 -0.0198975 15.5199 -0.0198975ZM21.0499 27.4401C22.0499 27.4401 22.8399 26.7201 22.9499 25.7601C22.9899 25.3801 23.0399 25.0001 23.1999 24.6501C23.6999 23.5501 24.5899 23.0401 25.7598 22.9401C26.3498 22.8901 26.8098 22.6001 27.1298 22.1001C27.5298 21.4801 27.5198 20.8301 27.1998 20.1801C26.9398 19.6401 26.8398 19.0701 26.9498 18.4701C27.0898 17.6801 27.4898 17.0601 28.1498 16.6001C28.8498 16.1201 29.1698 15.4601 29.0198 14.6101C28.9198 14.0601 28.5898 13.6601 28.1398 13.3501C27.5098 12.9101 27.1198 12.3201 26.9598 11.5601C26.8298 10.9301 26.9298 10.3401 27.1998 9.7701C27.5698 9.0001 27.4898 8.2701 26.9398 7.6101C26.5598 7.1601 26.0398 7.0301 25.4798 6.9701C24.1299 6.8201 23.1499 5.8501 22.9799 4.5001C22.9299 4.1101 22.8899 3.7301 22.6599 3.3901C22.1299 2.5801 21.1599 2.3101 20.2099 2.7401C19.6499 2.9901 19.0799 3.1101 18.4699 3.0101C17.6699 2.8701 17.0399 2.4601 16.5799 1.7901C16.0999 1.1001 15.4599 0.780103 14.6199 0.930103C14.0499 1.0301 13.6599 1.3701 13.3399 1.8301C12.7599 2.6401 11.9699 3.0501 10.9699 3.0401C10.5099 3.0401 10.0899 2.8801 9.67993 2.7101C8.43994 2.1801 7.19995 2.8901 7.01995 4.2401C6.96995 4.6101 6.92995 4.9701 6.76995 5.3201C6.26995 6.4201 5.36996 6.9301 4.20997 7.0301C3.59997 7.0801 3.13997 7.3801 2.81997 7.9001C2.43998 8.5201 2.44998 9.1601 2.75997 9.8001C3.01997 10.3401 3.11997 10.9101 3.00997 11.5101C2.86997 12.3101 2.44998 12.9301 1.77998 13.4001C1.08998 13.8801 0.789986 14.5301 0.929985 15.3701C1.02998 15.9201 1.35998 16.3201 1.80998 16.6301C2.43998 17.0701 2.82997 17.6601 2.97997 18.4201C3.10997 19.0501 3.00997 19.6401 2.73997 20.2101C2.36998 21.0001 2.44998 21.7301 3.01997 22.3901C3.40997 22.8401 3.95997 22.9501 4.51996 23.0101C5.80996 23.1501 6.81995 24.1801 6.95995 25.4801C6.97995 25.6701 7.00995 25.8701 7.04995 26.0601C7.28995 27.0801 8.49994 27.8501 9.78993 27.2301C11.1099 26.6001 12.5099 27.0001 13.3599 28.1901C14.2199 29.4001 15.7099 29.4001 16.5699 28.2001C17.4399 26.9901 18.7999 26.6201 20.1599 27.2301C20.4699 27.3401 20.7699 27.4201 21.0499 27.4401Z" fill="#E0522D"/>
<path d="M5.25008 14.9201C5.27008 17.2301 5.96008 19.2301 7.33008 21.0001C7.63008 21.3901 7.65008 21.6701 7.38008 21.8601C7.12008 22.0501 6.89008 21.9601 6.58008 21.5701C4.91008 19.4101 4.11008 16.9501 4.34008 14.2401C4.66008 10.3701 6.57008 7.46015 9.96008 5.56015C11.7401 4.56015 13.6801 4.17015 15.7201 4.31015C17.9501 4.46015 19.9501 5.25015 21.7001 6.65015C21.9901 6.89015 22.0501 7.15015 21.8601 7.38015C21.6801 7.60015 21.4001 7.61015 21.1101 7.38015C19.7701 6.32015 18.2701 5.63015 16.5901 5.37015C13.6601 4.92015 11.0301 5.62015 8.74008 7.52015C6.89008 9.06015 5.79008 11.0501 5.38008 13.4201C5.27008 13.9501 5.28008 14.4701 5.25008 14.9201Z" fill="#E0522D"/>
<path d="M24.7199 14.9902C24.7299 12.7602 24.0399 10.7702 22.6899 9.01015C22.5899 8.88015 22.4799 8.74015 22.4899 8.57015C22.4999 8.37015 22.6099 8.22015 22.8099 8.15015C23.0299 8.07015 23.2099 8.15015 23.3499 8.33015C23.8299 8.92015 24.2299 9.55015 24.5599 10.2302C25.4199 11.9602 25.8199 13.8102 25.6499 15.7302C25.3099 19.6002 23.4199 22.5102 20.0199 24.4102C18.2299 25.4102 16.2699 25.8002 14.2299 25.6502C12.0599 25.5002 10.1099 24.7402 8.38993 23.4002C8.09992 23.1702 8.02992 22.9002 8.19992 22.6702C8.37992 22.4202 8.65992 22.4102 8.96992 22.6602C10.2799 23.6702 11.7399 24.3402 13.3699 24.5902C16.3299 25.0501 18.9899 24.3402 21.2899 22.4002C23.1299 20.8502 24.2199 18.8502 24.6199 16.4802C24.6999 15.9902 24.7199 15.4902 24.7199 14.9902Z" fill="#E0522D"/>
<path d="M14.37 11.0302C14.49 12.4502 13.59 13.7502 12.31 14.0202C11.5 14.1902 10.8 13.9202 10.23 13.3502C9.08004 12.2102 9.12004 10.1602 10.31 9.05018C11.53 7.91017 13.41 8.35018 14.11 9.94019C14.27 10.3002 14.37 10.6802 14.37 11.0302ZM13.45 11.2802C13.44 10.8502 13.34 10.4702 13.13 10.1202C12.57 9.19019 11.44 9.11018 10.76 9.95019C10.14 10.7102 10.2 11.9702 10.88 12.6702C11.51 13.3202 12.44 13.2702 13 12.5702C13.3 12.1802 13.42 11.7302 13.45 11.2802Z" fill="#E0522D"/>
<path d="M20.5801 18.5701C20.5801 19.5901 20.2801 20.3301 19.6401 20.9301C18.7001 21.8101 17.2601 21.7501 16.3801 20.8001C15.34 19.6701 15.31 17.8901 16.3101 16.7301C17.4601 15.4001 19.5101 15.7301 20.2701 17.3801C20.4901 17.8001 20.6001 18.2501 20.5801 18.5701ZM18.0601 16.8601C17.6601 16.8401 17.3201 17.0201 17.0501 17.3201C16.4101 18.0201 16.3501 19.2101 16.9201 19.9801C17.5801 20.8601 18.7701 20.8101 19.3301 19.8601C19.7701 19.1201 19.7701 18.3501 19.3301 17.6101C19.0601 17.1401 18.6601 16.8501 18.0601 16.8601Z" fill="#E0522D"/>
<path d="M12.78 20.8001C12.41 20.8001 12.21 20.4801 12.34 20.1301C12.62 19.4401 12.91 18.7601 13.2 18.0801C14.42 15.1801 15.63 12.2901 16.85 9.39013C16.88 9.33013 16.9 9.26013 16.93 9.20013C17.0599 8.96013 17.2899 8.87013 17.5199 8.95013C17.7599 9.04013 17.8799 9.29013 17.7899 9.55013C17.6799 9.87013 17.5399 10.1801 17.4099 10.5001C16.04 13.7601 14.67 17.0301 13.3 20.2901C13.19 20.5501 13.09 20.7901 12.78 20.8001Z" fill="#E0522D"/>
</g>
<defs>
<clipPath id="clip0_298:74554">
<rect width="30" height="30" fill="white"/>
</clipPath>
</defs>
</svg>
