<svg width="35" height="35" viewBox="0 0 35 35" fill="none" xmlns="http://www.w3.org/2000/svg">
<path d="M23.2867 8.89C22.96 8.70333 22.8784 8.435 23.0184 8.09667C23.1584 7.72333 23.275 7.33833 23.4267 6.965C23.5084 6.76667 23.4734 6.685 23.31 6.56833C22.0034 5.58833 21.9567 3.61667 23.2167 2.60167C23.4967 2.38 23.8117 2.24 24.15 2.15833C24.4534 2.07667 24.745 1.96 24.8967 1.68C25.27 0.968332 25.8534 0.524999 26.6 0.279999C26.845 0.279999 27.09 0.279999 27.335 0.279999C27.8484 0.408332 28.3034 0.641665 28.7117 1.00333C28.9334 1.20167 29.225 1.26 29.5284 1.27167C31.3834 1.28333 32.5617 3.47667 31.4767 5.145C31.3484 5.34333 31.3717 5.40167 31.57 5.495C32.235 5.83333 32.9 6.18333 33.565 6.53333C34.0317 6.77833 34.2067 7.08167 34.1484 7.525C34.1017 7.93333 33.8217 8.19 33.3317 8.295C32.83 8.4 32.3284 8.505 31.7917 8.61C32.025 8.96 32.2467 9.275 32.3984 9.63667C32.76 10.5 32.7484 11.3283 32.0717 12.04C31.395 12.7517 30.5667 12.8567 29.6684 12.5183C29.6334 12.5067 29.5867 12.495 29.5284 12.4717C29.2717 14.1167 29.3184 15.715 29.7384 17.3133C30.17 18.9467 30.2167 20.6033 29.68 22.225C28.98 24.325 27.5217 25.7133 25.5384 26.6117C24.85 26.915 24.85 26.9383 24.85 27.685C24.8384 28.9333 24.2667 29.82 23.1467 30.345C22.89 30.4617 22.925 30.5317 23.0417 30.7533C23.415 31.4883 23.9634 31.78 24.7684 31.6283C25.0134 31.5817 25.2817 31.6167 25.5384 31.6283C25.8417 31.6517 26.0284 31.8383 26.0284 32.1183C26.0284 32.3983 25.8534 32.5967 25.55 32.62C25.305 32.6433 25.0717 32.62 24.8267 32.62C24.815 32.7367 24.8967 32.76 24.9317 32.8183C25.095 33.0517 25.095 33.285 24.885 33.4833C24.675 33.6817 24.43 33.6817 24.22 33.5067C23.9867 33.32 23.7534 33.1217 23.5434 32.9C23.4034 32.76 23.2984 32.76 23.1467 32.865C23.0067 32.97 22.8434 33.0633 22.6917 33.145C22.4117 33.2967 22.1317 33.2267 21.98 32.9933C21.8284 32.7483 21.8984 32.48 22.155 32.2933C22.3184 32.165 22.6334 32.1183 22.6334 31.9317C22.645 31.7683 22.4234 31.5817 22.295 31.4067C21.6884 30.6483 21.245 29.7967 20.7784 28.9567C20.5217 28.49 20.1834 28.21 19.6234 28.245C19.0867 28.28 18.7834 28.6067 18.5967 29.085C18.1067 30.3217 17.115 30.9167 15.8667 31.15C15.61 31.1967 15.505 31.2783 15.4817 31.535C15.4584 31.8267 15.3767 32.1067 15.3184 32.3867C15.2834 32.5617 15.33 32.6317 15.5167 32.62C15.9367 32.6083 16.345 32.6083 16.765 32.62C17.1034 32.6317 17.325 32.83 17.325 33.11C17.325 33.4017 17.1034 33.6 16.765 33.6233C16.5317 33.635 16.2984 33.6233 16.065 33.6233C16.0767 33.7517 16.1584 33.775 16.205 33.8333C16.4267 34.0783 16.4384 34.3467 16.2517 34.5567C16.0534 34.7783 15.7617 34.7783 15.505 34.5567C15.26 34.3467 15.015 34.125 14.7817 33.9033C14.6534 33.775 14.56 33.7633 14.4084 33.8683C14.2334 33.9967 14.0467 34.1017 13.86 34.195C13.58 34.3467 13.3 34.265 13.16 34.02C13.02 33.7867 13.09 33.5183 13.335 33.3433C13.3584 33.3317 13.37 33.32 13.3934 33.3083C14.105 33.0517 14.2684 32.48 14.4434 31.8033C14.7234 30.7067 14.3967 29.785 13.9067 28.8633C13.825 28.7117 13.7084 28.56 13.5684 28.4433C12.6934 27.7317 12.39 26.81 12.6234 25.7133C12.6584 25.5383 12.6934 25.3633 12.7167 25.235C12.1334 25.235 11.5617 25.235 11.0017 25.235C10.64 25.235 10.29 25.2583 9.92836 25.1767C8.77336 24.9433 8.08502 24.185 7.98002 23.0067C7.93336 22.4817 7.94502 21.945 8.01502 21.4317C8.05002 21.175 7.95669 21.1283 7.73502 21.1167C7.36169 21.105 7.00002 21.0817 6.63836 20.9883C5.14502 20.6267 4.17669 19.2617 4.31669 17.7333C4.35169 17.3133 4.35169 17.3133 3.92002 17.2783C2.28669 17.15 0.945022 15.75 0.898355 14.1283C0.875022 13.195 1.48169 12.565 2.42669 12.635C3.69835 12.7167 4.97002 12.845 6.25336 12.9383C9.75336 13.195 13.2417 13.6383 16.765 13.5683C17.5117 13.5567 18.27 13.58 19.0167 13.4517C20.6384 13.1833 21.7234 12.25 22.295 10.71C22.4584 10.2667 22.54 10.1967 22.995 10.2083C23.3567 10.325 23.485 10.5583 23.3684 10.9667C23.0884 11.9117 22.5517 12.7167 21.805 13.3583C20.7784 14.2333 19.5884 14.6067 18.235 14.63C17.2317 14.6533 16.2167 14.7 15.2134 14.6767C13.8134 14.6417 12.4134 14.5483 11.025 14.4317C9.80002 14.3267 8.56336 14.245 7.33836 14.14C6.11336 14.035 4.87669 13.9533 3.65169 13.8367C3.27836 13.8017 2.89336 13.755 2.50836 13.7433C2.10002 13.7317 1.99502 13.8717 2.01836 14.28C2.07669 15.1667 2.97502 16.0883 3.89669 16.17C4.99336 16.275 6.09002 16.345 7.18669 16.38C7.56002 16.3917 7.92169 16.4383 8.29502 16.4617C8.66835 16.485 8.89002 16.7417 8.87836 17.0683C8.86669 17.4067 8.64502 17.6283 8.26002 17.6283C7.58336 17.64 6.91835 17.5817 6.25336 17.5233C5.47169 17.4417 5.33169 17.57 5.46002 18.3517C5.58836 19.1683 6.17169 19.7633 7.00002 19.9267C7.47836 20.02 7.95669 20.0433 8.43502 20.0667C8.87836 20.0783 9.33336 20.1483 9.77669 20.16C10.1267 20.1717 10.36 20.4167 10.3717 20.72C10.3834 21.035 10.1617 21.2683 9.81169 21.3267C9.75336 21.3383 9.69502 21.3383 9.64835 21.3383C9.11169 21.3617 9.10002 21.3617 9.10002 21.8983C9.10002 22.2367 9.08836 22.575 9.11169 22.9133C9.17002 23.6367 9.67169 24.115 10.3484 24.1267C10.5234 24.1267 10.6284 24.115 10.5467 23.8817C10.2667 23.1583 10.4184 22.4817 10.7917 21.8283C12.4367 18.97 14.8517 17.0567 17.9434 15.9717C19.6817 15.365 21.4784 15.0383 23.3217 15.0383C24.5117 15.0383 25.375 15.7033 25.6667 16.87C25.9584 18.0367 25.8067 19.18 25.3984 20.2767C24.395 22.89 22.47 24.43 19.705 24.8967C19.2034 24.9783 18.6784 25.0133 18.165 24.99C17.885 24.9783 17.6634 24.885 17.57 24.5933C17.5234 24.0567 17.7334 23.8 18.305 23.8C19.3434 23.8 20.3467 23.66 21.28 23.1933C23.0884 22.2717 24.2084 20.825 24.5467 18.8183C24.64 18.2933 24.6634 17.7683 24.5467 17.2433C24.5 17.01 24.4184 16.7883 24.255 16.6133C23.9984 16.3333 23.6834 16.24 23.3217 16.24C21.5834 16.24 19.8917 16.5667 18.2467 17.1383C16.3917 17.78 14.7817 18.8067 13.44 20.2417C12.845 20.8833 12.3317 21.5833 11.8884 22.3417C11.83 22.4467 11.7717 22.5633 11.725 22.6683C11.4217 23.345 11.83 24.0333 12.565 24.0567C13.335 24.08 14.105 23.9867 14.8867 23.9633C15.1317 23.9517 15.3767 23.9283 15.6217 23.9283C16.1467 23.94 16.3217 24.1383 16.2984 24.6633C16.1934 24.9783 15.9484 25.1183 15.6217 25.1183C15.1434 25.1183 14.665 25.2233 14.175 25.1883C13.9534 25.1767 13.8484 25.27 13.8134 25.4917C13.7667 25.795 13.685 26.0867 13.685 26.39C13.685 26.7983 13.8134 27.16 14.105 27.4167C14.8167 28.0233 15.19 28.8283 15.47 29.6917C15.61 30.1117 15.6217 30.1117 16.0417 30.0067C16.7884 29.8083 17.3484 29.3767 17.64 28.6417C17.955 27.8367 18.515 27.3117 19.3784 27.1833C20.3584 27.0433 21.1284 27.4167 21.6767 28.2567C21.7 28.2917 21.7234 28.3267 21.7467 28.3733C21.91 28.665 22.085 28.9567 22.2484 29.2483C22.3417 29.4117 22.4467 29.4583 22.6334 29.3767C23.38 29.0733 23.7884 28.4667 23.8 27.65C23.8 27.3467 23.7534 27.0433 23.87 26.7517C24.08 26.2033 24.4767 25.865 25.0134 25.6317C26.005 25.2 26.915 24.6283 27.6267 23.7767C28.5134 22.7033 28.9217 21.4667 28.9917 20.09C29.0384 19.0867 28.8517 18.1067 28.63 17.1267C27.9767 14.315 28.35 11.6083 29.435 8.96C29.5867 8.59833 29.7034 8.24833 29.6217 7.82833C29.505 7.23333 29.715 6.685 30.0417 6.17167C30.2634 5.83333 30.24 5.76333 29.9367 5.495C29.3184 4.97 28.6067 4.67833 27.8017 4.57333C27.58 4.53833 27.3817 4.59666 27.1717 4.62C26.3784 4.70166 25.865 5.215 25.3984 5.78666C24.92 6.37 24.5817 7.04667 24.3367 7.75833C24.2434 8.02667 24.1734 8.295 24.0567 8.55167C23.8234 8.925 23.625 9.00667 23.2867 8.89Z" fill="#4E280F"/>
<path d="M23.2866 8.89001C23.7416 8.89001 23.8466 8.82001 23.9749 8.38834C24.2549 7.45501 24.6283 6.56834 25.2349 5.78667C25.7016 5.19167 26.2499 4.69001 27.0549 4.58501C27.6849 4.80667 28.1633 5.26167 28.4783 5.81001C28.8516 6.44001 28.7583 7.11667 28.3149 7.71167C27.8483 8.34167 27.5099 9.03001 27.2416 9.76501C26.7166 11.1883 26.4133 12.6467 26.3899 14.175C26.3666 15.33 26.5066 16.45 26.7983 17.57C27.1016 18.7717 27.1716 19.985 26.9383 21.21C26.5299 23.4033 25.2816 24.9667 23.3216 25.9933C23.0883 26.11 22.8549 26.2033 22.6216 26.32C22.0383 26.5883 21.8049 26.9967 21.8749 27.6383C21.8983 27.8717 21.8516 28.0817 21.8049 28.3033C21.7816 28.3967 21.7466 28.5133 21.6066 28.4433C21.2099 27.8017 20.6849 27.3583 19.9033 27.2883C18.9349 27.195 18.0599 27.685 17.7099 28.6067C17.3599 29.5167 16.6833 29.9833 15.7849 30.205C15.5633 30.2633 15.4583 30.2283 15.3883 29.9833C15.2716 29.5167 15.0849 29.0733 14.8633 28.6417C14.6649 28.2683 14.4316 27.9417 14.1049 27.6733C13.5916 27.2533 13.4283 26.6933 13.5566 26.04C13.6149 25.76 13.6033 25.3867 13.7783 25.2233C13.9416 25.0717 14.3149 25.165 14.5833 25.1417C14.9099 25.1183 15.2366 25.095 15.5516 25.095C15.8199 25.095 16.0299 25.0017 16.1466 24.745C16.1583 24.57 16.2399 24.4533 16.4383 24.4533C16.7066 24.4533 16.9749 24.4417 17.2433 24.4067C17.3949 24.3833 17.5116 24.43 17.5349 24.605C17.6283 24.815 17.7683 24.955 18.0133 24.955C20.0899 24.99 21.9683 24.4533 23.4849 22.9717C25.0716 21.42 25.8299 19.5183 25.5616 17.29C25.3983 15.9133 24.4999 15.1317 23.1116 15.1783C19.5883 15.295 16.3566 16.24 13.6033 18.5267C12.3899 19.5417 11.4216 20.755 10.6749 22.1433C10.3133 22.82 10.3133 23.2517 10.6866 24.2667C9.65992 24.4417 8.98326 23.9167 8.91326 22.8783C8.88992 22.4467 8.92492 22.0267 8.93659 21.595C8.94826 21.3617 9.00659 21.2333 9.27492 21.2917C9.40326 21.315 9.54326 21.315 9.68326 21.3033C9.99826 21.2917 10.2083 21.105 10.2199 20.825C10.2316 20.5217 10.0333 20.3117 9.69492 20.3C8.80826 20.2533 7.92159 20.2183 7.04659 20.1133C5.80992 19.9617 5.02826 18.83 5.27326 17.605C5.30826 17.4183 5.41326 17.465 5.51826 17.4767C6.26492 17.5117 7.02326 17.5583 7.76992 17.605C7.90992 17.6167 8.06159 17.6167 8.20159 17.6167C8.50492 17.6167 8.70326 17.4417 8.72659 17.1617C8.74992 16.87 8.56326 16.6483 8.25992 16.6133C7.86326 16.5783 7.45492 16.5667 7.04659 16.5433C5.99659 16.4733 4.94659 16.415 3.88492 16.3333C2.81159 16.2517 1.87826 15.2833 1.83159 14.2333C1.81992 13.8133 1.93659 13.6733 2.36826 13.7083C3.89659 13.825 5.43659 13.965 6.96492 14.0817C10.2083 14.3267 13.4399 14.7233 16.7066 14.6417C17.7099 14.6183 18.7366 14.6883 19.7166 14.3967C21.4316 13.895 22.5749 12.7867 23.1816 11.1067C23.3333 10.675 23.2866 10.5467 22.9249 10.2783C23.0649 9.77667 23.1816 9.33334 23.2866 8.89001Z" fill="#FCEBE3"/>
<path d="M21.6067 28.4083C21.8284 28.1867 21.8284 27.8833 21.7817 27.615C21.7 26.9967 21.9217 26.5067 22.4934 26.25C23.1817 25.9467 23.835 25.5967 24.4417 25.1417C25.7834 24.1383 26.5417 22.7967 26.845 21.175C27.0784 19.95 27.02 18.725 26.6934 17.535C26.2967 16.0417 26.215 14.5483 26.3667 13.02C26.5184 11.4683 26.9617 10.01 27.615 8.59834C27.7784 8.24834 28.0234 7.95667 28.245 7.65334C28.7117 7.00001 28.7234 5.97334 28.0234 5.37834C27.6967 5.09834 27.37 4.83001 27.0317 4.58501C27.8134 4.41001 28.5134 4.64334 29.19 4.99334C29.5167 5.15668 29.8084 5.39001 30.1 5.63501C30.275 5.77501 30.2867 5.89167 30.1467 6.07834C29.7734 6.55667 29.4584 7.10501 29.5984 7.71167C29.7267 8.29501 29.5167 8.76167 29.3184 9.26334C28.245 11.9933 27.9884 14.7817 28.7234 17.6633C29.155 19.3433 29.12 21.0233 28.3734 22.6217C27.6734 24.1267 26.46 25.0717 24.9667 25.7133C24.6634 25.8417 24.3834 25.9933 24.1617 26.25C23.87 26.6 23.7417 27.0083 23.765 27.4633C23.8234 28.5133 23.3917 29.1433 22.4117 29.54C22.2717 29.5983 22.2017 29.5867 22.12 29.4467C21.9917 29.085 21.805 28.7467 21.6067 28.4083Z" fill="#FCEBE3"/>
<path d="M11.7717 22.2833C12.6351 20.7083 13.8484 19.46 15.3301 18.4567C17.1617 17.2317 19.2034 16.5667 21.3734 16.2867C22.0267 16.205 22.6917 16.1234 23.3451 16.1467C23.6834 16.1584 24.0101 16.2517 24.2201 16.555C24.3017 16.6834 24.2667 16.8117 24.2317 16.94C23.9984 17.9317 23.5551 18.8183 22.8901 19.5767C21.8284 20.8133 20.4984 21.5833 18.8884 21.8517C18.2351 21.9567 17.5701 21.98 16.9167 22.0267C15.7034 22.1083 14.4901 22.19 13.2651 22.2833C12.8801 22.3183 12.4834 22.3067 12.0984 22.365C11.9934 22.3883 11.8651 22.3883 11.7717 22.2833Z" fill="#FCEBE3"/>
<path d="M11.7718 22.2833C12.6585 22.225 13.5568 22.19 14.4435 22.0967C14.7818 22.0617 15.1318 22.0617 15.4818 22.0267C16.3218 21.9567 17.1735 21.9333 18.0251 21.875C20.5335 21.7 22.4351 20.5333 23.6601 18.3283C23.9635 17.78 24.1618 17.185 24.2551 16.555C24.5701 16.87 24.6285 17.29 24.6518 17.6983C24.8151 20.79 22.3885 23.5667 19.3085 23.835C18.9235 23.87 18.5501 23.8817 18.1651 23.905C17.7101 23.9283 17.5585 24.1033 17.5701 24.57C17.5351 24.535 17.4885 24.465 17.4535 24.465C17.0801 24.4767 16.6951 24.5 16.3218 24.535C16.2751 24.535 16.2285 24.6517 16.1818 24.71C16.2051 24.2083 16.0301 24.0217 15.5518 24.045C14.6418 24.08 13.7201 24.1267 12.8101 24.1733C12.2968 24.2083 11.8535 24.1033 11.5851 23.6133C11.2935 23.1117 11.4685 22.6917 11.7718 22.2833Z" fill="#FCEBE3"/>
<path d="M23.2983 4.56166C23.2983 3.86166 23.6833 3.33666 24.3017 3.15C25.0133 2.94 25.55 2.56666 25.935 1.90166C26.3317 1.19 27.1833 1.05 27.8133 1.575C28.35 2.01833 28.9334 2.22833 29.6217 2.275C30.6367 2.33333 31.2434 3.66333 30.6834 4.50333C30.555 4.70166 30.4734 4.57333 30.3684 4.50333C29.6567 3.97833 28.8634 3.64 27.965 3.54666C26.67 3.41833 25.62 3.85 24.745 4.80666C24.5 5.075 24.2783 5.355 24.0917 5.65833C24.01 5.79833 23.94 5.78666 23.835 5.69333C23.485 5.37833 23.3217 4.97 23.2983 4.56166Z" fill="#F92A3B"/>
<path d="M30.4966 11.6666C30.4499 11.6666 30.3683 11.655 30.2866 11.6433C29.8083 11.5616 29.7033 11.41 29.8316 10.955C30.0066 10.325 30.2399 9.70665 30.5083 9.09998C30.5899 8.91332 30.6483 8.83165 30.8116 9.04165C31.1266 9.44998 31.4533 9.84665 31.5699 10.3716C31.7333 11.06 31.2433 11.6666 30.4966 11.6666Z" fill="#F92A3B"/>
<path d="M32.9001 7.32666C32.1068 7.48999 31.3834 7.64166 30.6601 7.79332C30.5668 7.39666 30.8235 6.68499 31.1151 6.48666C31.1851 6.43999 31.2434 6.46333 31.3018 6.48666C31.8151 6.74333 32.3285 7.02333 32.9001 7.32666Z" fill="#F9A515"/>
<path d="M28.2801 6.20666C28.2684 6.46333 28.0467 6.66166 27.79 6.65C27.5217 6.63833 27.3117 6.405 27.335 6.13666C27.3584 5.86833 27.5917 5.67 27.86 5.705C28.1167 5.72833 28.3034 5.93833 28.2801 6.20666Z" fill="#4E280F"/>
</svg>
