<svg width="35" height="35" viewBox="0 0 35 35" fill="none" xmlns="http://www.w3.org/2000/svg">
<path d="M8.7616 3.10333L7.61827 5.565L6.08994 7.40833L3.25494 8.44666L2.54327 10.465L3.0916 13.1483L2.16994 15.3183L0.478271 16.7883L2.05327 20.1133L2.92827 21.49L2.86994 22.9483L2.6716 24.71L3.1966 26.3433L5.09827 27.37L7.0816 28.14L7.86327 30.3917L8.7616 31.8267L10.3133 32.445L12.9383 31.745L14.3733 32.445L16.1233 34.0317L17.4883 34.44L19.2733 33.5883L21.0933 32.025L23.9749 31.99L26.0983 32.235L27.6499 28.6767L29.8783 27.2067L32.1533 25.7717L32.3983 23.765L31.9433 21.07L33.2966 19.355L34.1949 17.7217V15.8783L32.1533 14.0817L32.1066 11.34L32.1883 8.925L29.8783 7.61833L27.8133 6.59166L26.5883 3.58166L25.0016 2.42666L22.0499 3.08L20.4983 2.42666L19.0633 1.16666L17.8849 0.583328L15.9599 0.991662L14.3733 2.46166L13.2649 3.08L12.0866 2.70666L10.1966 2.50833L8.7616 3.10333Z" fill="#FCEBE3"/>
<path d="M18.095 0.10498C19.0633 0.338314 19.7866 0.886647 20.3583 1.71498C20.9416 2.56665 22.0616 2.78831 23.065 2.32165C23.7766 1.98331 24.5116 1.87831 25.2816 2.05331C26.7166 2.36831 27.7433 3.59331 27.825 5.07498C27.8833 6.21831 28.7583 7.09331 29.9016 7.15165C32.2233 7.27998 33.6583 9.64831 32.7016 11.7833C32.5383 12.1333 32.4216 12.495 32.41 12.8916C32.3983 13.685 32.725 14.2916 33.3783 14.735C34.1483 15.2483 34.6616 15.9483 34.825 16.8583C35.0466 18.1183 34.6733 19.18 33.705 20.02C33.6233 20.09 33.53 20.16 33.4366 20.2183C32.4216 20.9417 32.1416 21.9683 32.6666 23.1117C33.3666 24.64 32.9466 26.3083 31.6166 27.2416C31.1033 27.6033 30.5316 27.79 29.9133 27.825C28.7933 27.8833 27.9066 28.7583 27.8366 29.8666C27.685 32.2583 25.3283 33.6816 23.1466 32.6666C22.645 32.4333 22.1316 32.3517 21.595 32.4566C20.9883 32.5733 20.5566 32.9466 20.195 33.46C19.2966 34.755 17.745 35.2333 16.2983 34.6733C15.6683 34.4283 15.1666 34.02 14.7816 33.46C14.035 32.3983 13.02 32.13 11.8416 32.6666C9.65998 33.6583 7.30331 32.2467 7.15165 29.855C7.08165 28.7583 6.20665 27.8833 5.10998 27.8133C2.71831 27.6616 1.30665 25.305 2.29831 23.1233C2.83498 21.945 2.56665 20.93 1.50498 20.1833C0.758314 19.6583 0.338314 18.9466 0.10498 18.0833C0.10498 17.675 0.10498 17.2666 0.10498 16.8583C0.338314 15.89 0.874981 15.1316 1.72665 14.6066C1.85498 14.525 1.97165 14.3966 2.06498 14.28C2.67165 13.51 2.69498 12.6933 2.29831 11.83C1.29498 9.64831 2.71831 7.29165 5.10998 7.13998C6.21831 7.06998 7.09331 6.18331 7.15165 5.06331C7.23331 3.59331 8.25998 2.36831 9.69498 2.04165C10.4533 1.87831 11.2 1.97165 11.9116 2.30998C12.915 2.78831 14.0466 2.55498 14.6183 1.71498C15.19 0.886647 15.9133 0.338314 16.8816 0.10498C17.2783 0.10498 17.6866 0.10498 18.095 0.10498ZM24.5 31.92C25.655 31.92 26.5766 31.08 26.705 29.9716C26.7516 29.5283 26.81 29.0966 26.9966 28.6883C27.58 27.4166 28.6183 26.8216 29.9716 26.705C30.66 26.6466 31.1966 26.3083 31.5583 25.7367C32.0133 25.0133 32.0133 24.2666 31.64 23.5083C31.3366 22.8783 31.2316 22.2133 31.3483 21.525C31.5117 20.615 31.9783 19.8916 32.7366 19.3666C33.5533 18.8066 33.915 18.0483 33.74 17.0566C33.6233 16.415 33.2383 15.96 32.7133 15.5983C31.9783 15.0966 31.5233 14.3966 31.3483 13.5333C31.2083 12.81 31.3133 12.1216 31.6283 11.4566C32.0483 10.5583 31.9666 9.71831 31.325 8.95998C30.8816 8.43498 30.275 8.28331 29.6333 8.21331C28.07 8.03831 26.9383 6.90665 26.74 5.35498C26.6816 4.91165 26.635 4.45665 26.3783 4.05998C25.76 3.11498 24.64 2.81165 23.5433 3.31331C22.9016 3.60498 22.2366 3.74498 21.5366 3.62831C20.615 3.46498 19.88 2.99831 19.3433 2.21665C18.795 1.41165 18.0483 1.04998 17.0683 1.21331C16.415 1.32998 15.96 1.72665 15.5866 2.25165C14.9216 3.19665 14 3.66331 12.8333 3.66331C12.2966 3.66331 11.8183 3.47665 11.34 3.27831C9.89331 2.65998 8.46998 3.48831 8.25998 5.03998C8.20165 5.45998 8.15498 5.89165 7.96831 6.28831C7.38498 7.55998 6.34665 8.15498 4.99331 8.27165C4.29331 8.32998 3.75665 8.67998 3.38331 9.27498C2.93998 9.98665 2.96331 10.7333 3.31331 11.48C3.61665 12.11 3.72165 12.775 3.60498 13.4633C3.44165 14.385 2.96331 15.1083 2.18165 15.645C1.37665 16.1933 1.02665 16.9516 1.20165 17.9316C1.31831 18.5733 1.70331 19.0283 2.22831 19.39C2.96331 19.8916 3.41831 20.5917 3.59331 21.4667C3.73331 22.19 3.62831 22.8783 3.31331 23.5433C2.88165 24.4533 2.97498 25.305 3.63998 26.0633C4.09498 26.5883 4.72498 26.7167 5.37831 26.7866C6.88331 26.9267 8.04998 28.1166 8.21331 29.6216C8.23665 29.8433 8.27165 30.0767 8.31831 30.2866C8.59831 31.465 9.99831 32.3517 11.4916 31.64C13.02 30.905 14.6416 31.3716 15.6216 32.76C16.6133 34.16 18.3516 34.16 19.3433 32.7716C20.3466 31.36 21.9216 30.94 23.5083 31.6516C23.835 31.7916 24.185 31.8967 24.5 31.92Z" fill="#4E280F"/>
<path d="M16.625 11.97C16.8 13.9533 15.54 15.7617 13.755 16.135C12.6234 16.3683 11.655 15.995 10.85 15.2017C9.24002 13.6033 9.29835 10.745 10.9667 9.20498C12.67 7.61832 15.2834 8.23665 16.275 10.4533C16.485 10.955 16.6367 11.4683 16.625 11.97ZM15.3417 12.3083C15.3184 11.7133 15.19 11.1767 14.8984 10.6867C14.1167 9.39165 12.5417 9.27498 11.585 10.4533C10.7217 11.515 10.8034 13.265 11.7484 14.245C12.6234 15.1433 13.9184 15.085 14.7117 14.0933C15.1317 13.5567 15.3067 12.95 15.3417 12.3083Z" fill="#F92A3B"/>
<path d="M25.2934 22.4933C25.2817 23.9166 24.8734 24.955 23.9867 25.7833C22.6684 27.0083 20.6617 26.9266 19.4367 25.5966C17.9784 24.0216 17.9434 21.5366 19.3434 19.915C20.9417 18.06 23.8 18.5266 24.8734 20.8133C25.165 21.42 25.3167 22.05 25.2934 22.4933ZM21.7817 20.1016C21.2334 20.0783 20.755 20.3233 20.37 20.7433C19.4717 21.7233 19.4017 23.3916 20.195 24.4533C21.1167 25.69 22.7734 25.6083 23.555 24.2783C24.1617 23.24 24.1734 22.1783 23.555 21.14C23.1584 20.4983 22.61 20.0783 21.7817 20.1016Z" fill="#F92A3B"/>
<path d="M14.4083 25.5966C13.895 25.585 13.6033 25.1416 13.8017 24.6633C14.1867 23.7066 14.595 22.75 14.9917 21.805C16.6833 17.7683 18.3867 13.72 20.0783 9.68331C20.1133 9.58998 20.1483 9.50831 20.195 9.42665C20.37 9.09998 20.6967 8.95998 21.0117 9.07665C21.3383 9.20498 21.5133 9.54331 21.385 9.91665C21.2333 10.36 21.035 10.8033 20.8483 11.235C18.935 15.785 17.0217 20.3466 15.1083 24.8966C14.98 25.2466 14.8283 25.585 14.4083 25.5966Z" fill="#F92A3B"/>
</svg>
