<svg width="35" height="35" viewBox="0 0 35 35" fill="none" xmlns="http://www.w3.org/2000/svg">
<path d="M3.25488 29.3533L4.35155 24.85L7.55988 16.52L10.1149 12.46L14.8049 7.35L19.4366 4.11834L22.9016 3.675L27.0899 5.11L28.7232 7.14L29.2132 8.14334L26.7399 6.42834L23.3215 6.28834L20.0432 7.88667L19.1449 10.3833L19.3082 12.5767L20.1599 14.8517L21.5949 16.345L22.2365 16.8233L21.8632 18.7133L22.4116 21.0583L23.0415 22.9017L24.2315 23.8233L26.4249 24.885L28.1165 25.305L27.6732 26.39L25.4332 29.3533L22.9132 31.5L20.3582 33.075L17.6632 33.8333L12.3665 34.23L5.86822 31.8383L3.25488 29.3533Z" fill="#FCEBE3"/>
<path d="M27.8834 7.12831C27.8834 7.12831 26.5884 5.96165 24.2551 5.87998C21.9217 5.79832 16.0184 9.08831 16.4734 13.2066C16.9284 17.325 21.0584 18.375 21.0584 18.375L23.9751 14.5716L26.1917 12.8566L27.0084 9.61331L27.8834 7.12831Z" fill="#FCEBE3"/>
<path d="M13.3701 18.0134L13.3234 17.815C13.0084 16.6367 12.7867 15.5867 13.3234 14.5367C13.4867 14.2217 13.6734 14.0467 13.9301 13.965L13.9651 13.9534L14.0934 14.105V14.1284C14.0701 14.2334 14.0351 14.3267 14.0001 14.42C13.9301 14.5834 13.8717 14.7467 13.9067 14.9334C13.9884 14.8634 14.0701 14.7934 14.1401 14.7234C14.4551 14.4434 14.7701 14.1517 15.2134 14.0467L15.2484 14.035L15.365 14.1517L15.33 14.1867C14.4901 15.19 13.8951 16.3334 13.4401 17.7917L13.3701 18.0134ZM13.9301 14.0934C13.7201 14.1634 13.5684 14.3267 13.4284 14.595C12.9384 15.5517 13.1017 16.52 13.3817 17.5934C13.8251 16.24 14.3967 15.1434 15.1901 14.1867C14.8051 14.2917 14.5134 14.5484 14.2101 14.8167C14.1051 14.91 14.0001 15.0034 13.8951 15.085L13.8251 15.1434L13.8017 15.0617C13.7201 14.7934 13.8017 14.5834 13.8834 14.385C13.9184 14.3034 13.9417 14.2217 13.9651 14.14L13.9301 14.0934Z" fill="#754D29"/>
<path d="M12.8916 30.135L12.9499 29.9367C13.3583 28.4667 13.4633 27.1833 13.2999 25.8767L13.2883 25.83L13.4516 25.7833L13.4749 25.8067C13.7899 26.1333 13.9066 26.5533 14.0116 26.95C14.0349 27.055 14.0699 27.1483 14.1049 27.2533C14.2333 27.1133 14.2683 26.9383 14.3033 26.7633C14.3266 26.6583 14.3499 26.565 14.3849 26.46L14.3966 26.4367L14.5833 26.3783L14.6066 26.4017C14.7816 26.6 14.8399 26.8567 14.8166 27.2067C14.6999 28.3733 13.9533 29.155 13.0549 29.9717L12.8916 30.135ZM13.4166 25.9233C13.5683 27.16 13.4633 28.385 13.1016 29.7733C13.9183 29.015 14.5833 28.2917 14.6766 27.2183C14.6999 26.915 14.6533 26.6933 14.5249 26.53L14.4666 26.5533C14.4433 26.635 14.4199 26.7167 14.4083 26.81C14.3616 27.02 14.3149 27.2417 14.1166 27.4283L14.0466 27.4867L14.0233 27.405C13.9766 27.2767 13.9416 27.1367 13.9066 27.0083C13.7899 26.6 13.6966 26.2267 13.4166 25.9233Z" fill="#754D29"/>
<path d="M24.5467 25.725C23.835 25.725 23.17 25.5967 22.5517 25.1533C22.3183 24.99 22.1317 24.6867 22.0733 24.4767L22.0383 24.3483L22.155 24.4183C22.4933 24.5933 22.785 24.675 23.03 24.6633C22.8667 24.3717 22.6917 23.9633 22.6217 23.7883C22.365 23.17 22.3883 23.1583 22.4233 23.135L22.47 23.1L22.505 23.135C23.38 24.115 24.43 24.8733 25.795 25.5267L25.9817 25.6083L25.7833 25.6317C25.3633 25.6783 24.9433 25.725 24.5467 25.725ZM22.2367 24.5817C22.3183 24.745 22.4583 24.9433 22.61 25.06C23.485 25.6783 24.465 25.655 25.5733 25.5383C24.36 24.9433 23.415 24.255 22.5983 23.4033C22.7267 23.73 22.9717 24.325 23.17 24.6633L23.2167 24.7333L23.135 24.745C22.8783 24.7917 22.575 24.745 22.2367 24.5817Z" fill="#754D29"/>
<path d="M10.0568 21.7L10.0101 21.6067C9.42677 20.4167 10.4651 16.9867 11.5734 15.6217V15.5517L11.7368 15.5983L11.6784 15.6683C11.6434 16.0883 11.5151 16.4967 11.3984 16.8817C11.3051 17.185 11.2118 17.5 11.1534 17.815C11.1301 17.9433 11.1068 18.0717 11.0601 18.2583C11.0484 18.305 11.0368 18.3517 11.0251 18.3983C11.0718 18.3517 11.1184 18.305 11.1534 18.27C11.3168 18.1067 11.4451 17.9783 11.5734 17.8617C11.7834 17.675 12.0168 17.4767 12.4484 17.4183L12.5651 17.4067L10.0568 21.7ZM11.5501 15.8317C10.5234 17.22 9.6251 20.2417 10.0684 21.4433L12.3668 17.535C12.0401 17.605 11.8534 17.7683 11.6784 17.9317C11.5501 18.06 11.4218 18.1767 11.2584 18.34C11.1768 18.4217 11.0951 18.5033 10.9901 18.6083L10.8501 18.7483L10.8851 18.5617C10.9084 18.4333 10.9318 18.3283 10.9551 18.235C10.9901 18.06 11.0251 17.9317 11.0368 17.8033C11.0951 17.4767 11.1884 17.1617 11.2818 16.8583C11.3984 16.5083 11.5034 16.17 11.5501 15.8317Z" fill="#754D29"/>
<path d="M7.20998 29.155L7.18665 28.9917C6.82498 26.4367 7.75832 24.2317 8.76165 23.0183V22.9483L8.92498 22.995L8.86665 23.065C8.83165 23.485 8.70332 23.8934 8.58665 24.2784C8.49332 24.5817 8.39998 24.8967 8.34165 25.2117C8.31832 25.34 8.29498 25.4684 8.24832 25.655C8.23665 25.7017 8.22498 25.7484 8.21332 25.795C8.25998 25.7484 8.30665 25.7017 8.34165 25.6667C8.50498 25.5034 8.63332 25.375 8.76165 25.2467C8.97165 25.06 9.20498 24.8617 9.63665 24.8034L9.75332 24.7917L7.20998 29.155ZM8.73832 23.2284C7.81665 24.4184 6.99998 26.4484 7.27998 28.7934L9.55498 24.9317C9.22832 25.0017 9.04165 25.165 8.86665 25.3284C8.73832 25.4567 8.60998 25.5734 8.44665 25.7367C8.36498 25.8184 8.28332 25.9 8.17832 26.005L8.03832 26.145L8.07332 25.9584C8.09665 25.83 8.11998 25.725 8.14332 25.6317C8.17832 25.4567 8.21332 25.3284 8.22498 25.2C8.28332 24.8734 8.37665 24.5584 8.46998 24.255C8.58665 23.9167 8.69165 23.5784 8.73832 23.2284Z" fill="#754D29"/>
<path d="M12.2034 23.03V22.8317C12.2267 21.3267 12.2617 19.775 13.1134 18.2584L13.1834 18.13L13.2184 18.27C13.3817 18.8534 13.37 19.3784 13.37 19.915C13.37 20.0434 13.37 20.1834 13.37 20.3234L14.2917 18.6434V18.8767C14.2917 20.4984 13.6384 21.8284 12.2967 22.9484L12.2034 23.03ZM13.1484 18.4567C12.39 19.88 12.355 21.3617 12.32 22.785C13.4984 21.7584 14.105 20.5567 14.1634 19.1217L13.2534 20.7784V20.5567C13.2534 20.335 13.2534 20.125 13.2534 19.9267C13.265 19.4134 13.2767 18.97 13.1484 18.4567Z" fill="#754D29"/>
<path d="M9.98657 29.9484V29.75C10.0099 28.245 10.0449 26.6934 10.8966 25.1767L10.9666 25.0484L11.0016 25.1884C11.1649 25.7717 11.1532 26.2967 11.1532 26.8334C11.1532 26.9617 11.1532 27.1017 11.1532 27.2417L12.0749 25.5617V25.795C12.0749 27.4167 11.4216 28.7467 10.0799 29.8667L9.98657 29.9484ZM10.9432 25.375C10.1849 26.7984 10.1499 28.28 10.1149 29.7034C11.2932 28.6767 11.8999 27.475 11.9582 26.04L11.0482 27.6967V27.475C11.0482 27.2534 11.0482 27.0434 11.0482 26.845C11.0482 26.3317 11.0599 25.8767 10.9432 25.375Z" fill="#754D29"/>
<path d="M14.6416 24.885L14.6766 24.7567C15.0849 23.31 14.9683 21.8634 14.8166 20.4984L14.7933 20.3234L14.9099 20.4517C15.3299 20.9067 15.4816 21.3967 15.6333 21.8867C15.6916 22.0617 15.7383 22.2367 15.8083 22.4117L16.5083 20.5684L16.5666 20.72C16.9983 21.9217 16.0183 24.1384 14.7699 24.8267L14.6416 24.885ZM14.9566 20.6617C15.0966 21.9334 15.1783 23.2867 14.8283 24.64C15.9366 23.94 16.7766 22.05 16.5083 20.9184L15.8199 22.7267L15.7616 22.5867C15.6683 22.365 15.5983 22.1317 15.5283 21.91C15.3883 21.4784 15.2599 21.0584 14.9566 20.6617Z" fill="#754D29"/>
<path d="M19.1217 33.075V32.935C19.0984 31.255 18.5151 29.7267 17.9084 28.315L17.8384 28.1517L17.99 28.245C18.5851 28.595 18.9117 29.085 19.2151 29.5517C19.3317 29.7267 19.4484 29.9017 19.5767 30.0767L19.7401 27.8833L19.8334 28.0117C20.6851 29.155 20.3351 31.85 19.2034 32.9817L19.1217 33.075ZM18.0834 28.4317C18.6434 29.7733 19.1801 31.2083 19.2267 32.7833C20.2067 31.675 20.5217 29.3417 19.8334 28.1983L19.6701 30.3683L19.5767 30.2517C19.4017 30.0417 19.2501 29.82 19.1101 29.5983C18.8301 29.1783 18.5617 28.7583 18.0834 28.4317Z" fill="#754D29"/>
<path d="M10.5468 14.7L10.5235 14.63C10.3485 13.9884 10.5235 13.1717 11.0135 12.4134C11.5618 11.5617 12.3785 10.955 13.1718 10.8267L13.3235 10.8034L13.2301 10.92C13.0668 11.1184 12.8918 11.2934 12.7168 11.4684C12.4018 11.7834 12.0985 12.075 11.9351 12.495V12.53L11.9701 12.5184L12.8918 12.11L12.8451 12.2384C12.4601 13.2417 11.7485 14.0117 10.6285 14.665L10.5468 14.7ZM13.0318 10.9667C12.3318 11.1417 11.6085 11.7134 11.1185 12.4717C10.6635 13.1717 10.4885 13.9184 10.6285 14.525C11.6435 13.9184 12.2968 13.2184 12.6701 12.3317L11.7951 12.74L11.8301 12.46C11.9935 12.0284 12.3201 11.7017 12.6351 11.3867C12.7635 11.2467 12.9035 11.1184 13.0318 10.9667Z" fill="#754D29"/>
<path d="M15.6917 19.8683L15.6451 19.81C14.8284 18.5966 14.7001 16.8233 15.3417 15.7966L15.4351 15.6566L15.4584 15.82C15.5167 16.3683 15.6334 16.9166 15.8084 17.535C15.9017 17.4183 15.9484 17.2783 16.0067 17.1383C16.0884 16.9166 16.1817 16.6716 16.4267 16.485L16.5084 16.4266L16.5201 16.5316C16.6017 17.71 16.6134 18.8416 15.7501 19.8216L15.6917 19.8683ZM15.3651 16.0066C14.8634 16.9866 15.0034 18.5733 15.7034 19.6816C16.4617 18.7716 16.4734 17.7333 16.4034 16.6483C16.2401 16.8 16.1701 16.9866 16.1117 17.1733C16.0417 17.36 15.9717 17.5466 15.8201 17.6866L15.7501 17.745L15.7267 17.6516C15.5401 17.0566 15.4234 16.5316 15.3651 16.0066Z" fill="#754D29"/>
<path d="M10.4534 33.4367L10.4417 33.3317C10.2667 31.2783 10.71 29.9017 11.7717 29.12L11.9117 29.015L11.865 29.1783C11.7017 29.7733 11.585 30.38 11.515 31.0917C11.725 30.9983 11.865 30.87 12.0517 30.695C12.1917 30.5667 12.3434 30.4267 12.565 30.2633L12.705 30.1583L12.6467 30.3333C12.2384 31.6167 11.935 32.2467 10.5234 33.3783L10.4534 33.4367ZM11.7017 29.3183C10.7917 30.0767 10.4067 31.36 10.5467 33.215C11.795 32.2 12.11 31.6167 12.4834 30.4733C12.3434 30.59 12.2267 30.6833 12.1334 30.7767C11.9234 30.975 11.76 31.1267 11.4684 31.2317L11.3867 31.2667L11.3984 31.1733C11.4567 30.485 11.5617 29.89 11.7017 29.3183Z" fill="#754D29"/>
<path d="M16.5899 29.7383L16.5433 29.68C15.7266 28.4667 15.5983 26.6933 16.2399 25.6667L16.3333 25.5267L16.3566 25.69C16.4149 26.2383 16.5316 26.7867 16.7066 27.405C16.7999 27.2883 16.8466 27.1483 16.9049 27.0083C16.9866 26.7867 17.0799 26.5417 17.3249 26.355L17.4066 26.2967L17.4183 26.4017C17.4999 27.58 17.5116 28.7117 16.6483 29.6917L16.5899 29.7383ZM16.2516 25.8767C15.7499 26.8567 15.8899 28.4433 16.5899 29.5517C17.3483 28.6417 17.3599 27.6033 17.2899 26.5183C17.1266 26.67 17.0566 26.8567 16.9983 27.0433C16.9283 27.23 16.8583 27.4167 16.7066 27.5567L16.6366 27.615L16.6133 27.5217C16.4383 26.9267 16.3216 26.4017 16.2516 25.8767Z" fill="#754D29"/>
<path d="M14.8516 33.8333L14.8049 33.775C13.9066 32.4333 13.7549 30.4733 14.4666 29.33L14.5599 29.19L14.5832 29.3533C14.6532 29.9717 14.7699 30.5783 14.9682 31.2667C15.0732 31.1383 15.1316 30.975 15.1899 30.8117C15.2832 30.555 15.3766 30.2983 15.6566 30.0883L15.7382 30.03L15.7499 30.135C15.8432 31.43 15.8549 32.69 14.8982 33.775L14.8516 33.8333ZM14.4899 29.5283C13.9182 30.625 14.0816 32.3983 14.8632 33.635C15.7149 32.62 15.7266 31.4533 15.6449 30.2517C15.4582 30.4267 15.3766 30.6367 15.3066 30.8467C15.2366 31.045 15.1549 31.255 14.9799 31.4183L14.9099 31.4767L14.8866 31.3833C14.6882 30.7183 14.5599 30.1233 14.4899 29.5283Z" fill="#754D29"/>
<path d="M20.8249 24.115L20.7549 24.0917C19.7166 23.73 18.8416 22.7267 18.76 21.8167L18.7483 21.6533L18.865 21.77C19.145 22.0617 19.4483 22.3417 19.8216 22.6217C19.8216 22.5283 19.7866 22.435 19.7633 22.33C19.7166 22.1667 19.6583 21.9683 19.7166 21.7467L19.7516 21.6417L19.8216 21.7233C20.4049 22.3883 20.9183 23.065 20.8483 24.045L20.8249 24.115ZM18.9 21.9683C19.0633 22.7617 19.8333 23.6017 20.7199 23.94C20.7549 23.0883 20.3116 22.47 19.7983 21.8633C19.7866 22.0033 19.8216 22.1433 19.8566 22.2717C19.9033 22.4117 19.9499 22.5633 19.9149 22.715L19.8916 22.8083L19.8216 22.75C19.46 22.505 19.1683 22.2483 18.9 21.9683Z" fill="#754D29"/>
<path d="M26.2032 28C25.1882 28 24.1266 27.4517 23.7416 26.705L23.6599 26.5533L23.8116 26.6233C24.1616 26.7867 24.5349 26.915 24.9666 27.0317C24.9316 26.95 24.8732 26.88 24.8032 26.7983C24.6982 26.67 24.5699 26.5183 24.5466 26.2967L24.5349 26.1917L24.6282 26.2383C25.3866 26.6117 26.0982 27.0317 26.3899 27.93L26.4132 28H26.3316C26.2966 28 26.2499 28 26.2032 28ZM23.9282 26.81C24.3599 27.4517 25.3516 27.9067 26.2616 27.895C25.9816 27.125 25.3632 26.74 24.6866 26.4017C24.7216 26.53 24.8032 26.635 24.8966 26.74C24.9899 26.845 25.0832 26.9617 25.1066 27.1133L25.1299 27.2067L25.0366 27.1833C24.6282 27.0667 24.2666 26.95 23.9282 26.81Z" fill="#754D29"/>
<path d="M12.7049 25.48L12.6932 25.41C12.4715 24.3367 12.8915 23.065 13.6382 22.5283L13.7782 22.435L13.7315 22.5983C13.6149 22.9833 13.5449 23.3917 13.4865 23.8467C13.5682 23.8 13.6382 23.7183 13.7082 23.6483C13.8249 23.52 13.9649 23.3683 14.1982 23.31L14.3032 23.2867L14.2682 23.3917C13.9882 24.2317 13.6732 25.025 12.7865 25.4567L12.7049 25.48ZM13.5682 22.7267C12.9732 23.275 12.6349 24.36 12.7982 25.305C13.5449 24.8967 13.8599 24.2083 14.1049 23.45C13.9765 23.5083 13.8832 23.6133 13.7899 23.7183C13.6849 23.8233 13.5915 23.94 13.4282 23.9983L13.3349 24.0333L13.3465 23.94C13.4049 23.485 13.4632 23.1 13.5682 22.7267Z" fill="#754D29"/>
<path d="M16.6016 25.655L16.5666 25.585C16.1933 24.815 16.2516 23.7767 16.7066 23.2283L16.8116 23.1V23.2633C16.7999 23.5667 16.8233 23.87 16.8699 24.22C16.9166 24.1733 16.9399 24.115 16.9749 24.045C17.0449 23.9167 17.1149 23.7883 17.2783 23.695L17.3716 23.6483L17.3599 23.7533C17.3249 24.4417 17.2316 25.095 16.6599 25.6083L16.6016 25.655ZM16.6949 23.45C16.3799 23.975 16.3566 24.815 16.6483 25.4683C17.1033 25.025 17.2083 24.465 17.2433 23.87C17.1733 23.94 17.1266 24.0217 17.0799 24.1033C17.0216 24.2083 16.9749 24.3133 16.8583 24.3833L16.7766 24.4417L16.7649 24.3483C16.7183 24.0217 16.6949 23.7417 16.6949 23.45Z" fill="#754D29"/>
<path d="M25.06 29.4933L24.99 29.4817C24.3017 29.3883 23.625 28.8867 23.4617 28.3383L23.415 28.175L23.555 28.2683C23.7534 28.4083 23.9517 28.525 24.1967 28.6417C24.185 28.6067 24.1617 28.56 24.1384 28.525C24.08 28.4317 24.0217 28.315 24.0334 28.1633L24.045 28.0583L24.1267 28.1167C24.57 28.455 24.9784 28.805 25.06 29.4117V29.4933ZM23.6367 28.4667C23.8584 28.8867 24.3834 29.2483 24.92 29.3533C24.8267 28.875 24.5117 28.5717 24.15 28.2917C24.1617 28.35 24.1967 28.4083 24.2317 28.4667C24.2784 28.5483 24.325 28.63 24.325 28.7467V28.84L24.2434 28.805C24.0217 28.6883 23.8234 28.5833 23.6367 28.4667Z" fill="#754D29"/>
<path d="M22.9833 30.975L22.9133 30.94C21.8049 30.4267 20.9299 29.2367 20.9299 28.2217V28.0583L21.0349 28.1867C21.3149 28.5484 21.6299 28.875 22.0149 29.2367C22.0266 29.12 22.0033 29.015 21.9799 28.8867C21.9449 28.7 21.8983 28.4783 21.9916 28.2333L22.0266 28.14L22.0849 28.2217C22.6566 29.015 23.1583 29.82 22.9833 30.8933V30.975ZM21.0583 28.3967C21.1516 29.295 21.9333 30.3333 22.8899 30.8C23.0183 29.8433 22.5866 29.1083 22.0733 28.385C22.0383 28.5483 22.0616 28.7117 22.0966 28.8633C22.1316 29.0267 22.1666 29.19 22.1083 29.365L22.0849 29.4583L22.0149 29.4C21.6416 29.05 21.3383 28.735 21.0583 28.3967Z" fill="#754D29"/>
<path d="M17.4416 33.39L17.3949 33.3317C16.7182 32.445 16.5316 31.1033 16.9632 30.275L17.0449 30.1233L17.0799 30.2867C17.1499 30.695 17.2549 31.0917 17.4182 31.5467C17.4766 31.465 17.4999 31.36 17.5349 31.2667C17.5816 31.0917 17.6399 30.8933 17.8266 30.7417L17.9082 30.6717L17.9199 30.7767C18.0482 31.6633 18.1066 32.5267 17.4882 33.3317L17.4416 33.39ZM16.9982 30.485C16.6949 31.2433 16.8816 32.3983 17.4416 33.1917C17.9549 32.48 17.9199 31.71 17.8149 30.905C17.7216 31.0217 17.6749 31.15 17.6399 31.29C17.5932 31.43 17.5582 31.5817 17.4416 31.6983L17.3716 31.7683L17.3366 31.675C17.1849 31.255 17.0799 30.87 16.9982 30.485Z" fill="#754D29"/>
<path d="M18.1766 20.195L18.1299 20.1367C17.3133 18.9233 17.1849 17.15 17.8266 16.1233L17.9199 15.9833L17.9433 16.1467C18.0016 16.695 18.1183 17.2433 18.2933 17.8617C18.3866 17.745 18.4333 17.605 18.4916 17.465C18.5733 17.2433 18.6666 16.9983 18.9116 16.8117L18.9933 16.7533L19.0049 16.8583C19.0866 18.0367 19.0983 19.1683 18.2349 20.1483L18.1766 20.195ZM17.8383 16.3333C17.3366 17.3133 17.4766 18.9 18.1766 20.0083C18.9349 19.0983 18.9466 18.06 18.8766 16.975C18.7133 17.1267 18.6433 17.3133 18.5849 17.5C18.5149 17.6867 18.4449 17.8733 18.2933 18.0133L18.2233 18.0717L18.1999 17.9783C18.0249 17.395 17.9083 16.8583 17.8383 16.3333Z" fill="#754D29"/>
<path d="M23.1583 27.9767L23.0883 27.9533C21.6767 27.58 20.405 26.3433 20.2067 25.1417L20.1833 24.9783L20.3117 25.095C20.72 25.4683 21.1633 25.8067 21.7 26.1567C21.7 26.0167 21.6417 25.8767 21.5833 25.725C21.5017 25.5033 21.4083 25.2583 21.4667 24.955L21.49 24.85L21.56 24.92C22.4 25.7483 23.1583 26.5883 23.1583 27.895V27.9767ZM20.3583 25.2933C20.6383 26.3667 21.7933 27.4633 23.0417 27.825C23.0067 26.6467 22.33 25.8533 21.56 25.0833C21.5367 25.305 21.6183 25.4917 21.6883 25.6783C21.7583 25.865 21.8283 26.0517 21.805 26.2617L21.7933 26.355L21.7117 26.3083C21.1867 25.9583 20.755 25.6433 20.3583 25.2933Z" fill="#754D29"/>
<path d="M20.0666 27.9183L19.9966 27.8833C18.7132 27.195 17.7682 25.69 17.8499 24.4766L17.8616 24.3133L17.9549 24.4533C18.2699 24.9083 18.6199 25.34 19.0632 25.8066C19.0866 25.6666 19.0749 25.515 19.0516 25.3633C19.0166 25.13 18.9816 24.8733 19.1216 24.5933L19.1682 24.5L19.2266 24.5933C19.8566 25.585 20.3932 26.5883 20.0899 27.86L20.0666 27.9183ZM17.9549 24.6633C17.9782 25.7716 18.8416 27.1016 19.9849 27.7433C20.2299 26.5883 19.7516 25.655 19.1799 24.7333C19.1099 24.9433 19.1332 25.1416 19.1682 25.34C19.1916 25.5383 19.2266 25.7366 19.1449 25.935L19.1099 26.0166L19.0399 25.9466C18.6199 25.515 18.2699 25.095 17.9549 24.6633Z" fill="#754D29"/>
<path d="M8.61002 18.7133V18.5383C8.56336 16.7766 8.73836 15.4116 9.77669 14.0816L9.85836 13.965L9.87002 14.105C9.90502 14.4433 9.84669 14.7233 9.78836 14.9916C9.73002 15.2366 9.68336 15.47 9.71836 15.7266C9.77669 15.715 9.83502 15.6916 9.89336 15.6566C10.1034 15.575 10.3484 15.47 10.6517 15.61L10.71 15.6333L10.675 15.6916C10.08 16.695 9.38002 17.64 8.69169 18.5616L8.61002 18.7133ZM9.76502 14.2916C8.86669 15.5166 8.68002 16.7766 8.71502 18.375C9.47336 17.3366 10.0334 16.5666 10.5467 15.7033C10.3134 15.6333 10.1267 15.7033 9.94002 15.7733C9.85836 15.8083 9.77669 15.8433 9.68336 15.855L9.62502 15.8666L9.61336 15.8083C9.55502 15.5166 9.60169 15.2483 9.67169 14.9683C9.73002 14.77 9.77669 14.5366 9.76502 14.2916Z" fill="#754D29"/>
<path d="M4.95823 26.985L4.94656 26.8217C4.77156 25.06 4.8649 23.695 5.79823 22.295L5.9149 22.1317V22.33C5.90323 22.68 5.8799 22.925 5.85656 23.1234C5.82156 23.4384 5.79823 23.6367 5.8799 23.94C5.93823 23.9167 5.99656 23.8934 6.0549 23.8584C6.2649 23.7534 6.49823 23.6484 6.81323 23.7534L6.87156 23.7767L6.83656 23.835C6.34656 24.8034 5.8099 25.655 5.06323 26.8334L4.95823 26.985ZM5.7749 22.54C4.99323 23.8 4.8999 25.06 5.0399 26.635C5.72823 25.55 6.2299 24.745 6.6849 23.8467C6.45156 23.7884 6.2649 23.8817 6.0899 23.9634C6.00823 23.9984 5.92656 24.045 5.8449 24.0684L5.78656 24.08L5.7749 24.0217C5.6699 23.66 5.69323 23.45 5.72823 23.1C5.75156 22.96 5.76323 22.7734 5.7749 22.54Z" fill="#754D29"/>
<path d="M17.9317 15.3767L17.7917 15.2367C16.9284 14.385 16.205 13.58 16.1467 12.4017C16.1234 12.0517 16.205 11.795 16.3917 11.6083L16.415 11.585L16.6017 11.655L16.6134 11.6783C16.6484 11.7717 16.66 11.8767 16.6834 11.9817C16.7067 12.1567 16.7417 12.3317 16.8584 12.4717C16.8934 12.3667 16.9284 12.2733 16.9634 12.1683C17.0917 11.7717 17.2317 11.3633 17.5467 11.0483L17.57 11.025L17.605 11.0367C17.6284 11.0483 17.6517 11.0483 17.675 11.06L17.7217 11.0717L17.71 11.1183C17.4884 12.4133 17.5467 13.7083 17.8967 15.1783L17.9317 15.3767ZM16.4384 11.7133C16.2984 11.8767 16.24 12.0983 16.2517 12.4017C16.31 13.475 16.94 14.2333 17.7217 15.015C17.4184 13.6267 17.3717 12.39 17.57 11.1533C17.29 11.445 17.1734 11.8067 17.045 12.1917C16.9984 12.32 16.9634 12.46 16.905 12.5883L16.87 12.67L16.8117 12.6117C16.6134 12.425 16.5784 12.2033 16.5434 11.9817C16.5317 11.8883 16.52 11.8067 16.485 11.725L16.4384 11.7133Z" fill="#754D29"/>
<path d="M21.9332 17.325L21.7349 17.3017C20.5332 17.1383 19.4716 16.9283 18.7132 16.0416C18.4799 15.7733 18.3982 15.5283 18.4216 15.26V15.225L18.6082 15.1666L18.6316 15.1783C18.7132 15.2367 18.7949 15.3066 18.8649 15.3766C18.9932 15.505 19.1216 15.6216 19.2966 15.6683C19.2616 15.5633 19.2266 15.47 19.1916 15.365C19.0516 14.9683 18.9116 14.56 18.9816 14.1166V14.0816L19.1332 14.0233L19.1566 14.07C19.7632 15.2366 20.5916 16.2283 21.7582 17.1966L21.9332 17.325ZM18.5266 15.3066C18.5149 15.5283 18.5966 15.7383 18.7949 15.96C19.4832 16.7767 20.4516 16.9983 21.5482 17.1617C20.4632 16.2283 19.6816 15.2833 19.0982 14.175C19.0516 14.5716 19.1682 14.9333 19.3082 15.33C19.3549 15.4583 19.4016 15.5867 19.4366 15.7266L19.4599 15.8083L19.3782 15.7966C19.0982 15.7616 18.9466 15.61 18.7832 15.4583C18.7132 15.4 18.6549 15.33 18.5849 15.2833L18.5266 15.3066Z" fill="#754D29"/>
<path d="M22.1316 22.575L21.9683 22.4583C20.9649 21.77 20.1133 21.105 19.8449 19.9616C19.7633 19.6233 19.7866 19.355 19.9383 19.1333L19.9616 19.0983L20.1483 19.1333L20.1599 19.1566C20.2066 19.25 20.2416 19.3433 20.2766 19.4366C20.3349 19.6116 20.3933 19.7633 20.5333 19.8916C20.5449 19.7866 20.5683 19.6816 20.5799 19.5766C20.6383 19.1566 20.6966 18.7366 20.9533 18.3633L20.9766 18.34L21.1399 18.3633V18.41C21.1516 19.7166 21.4433 20.9766 22.0499 22.3766L22.1316 22.575ZM20.0083 19.2266C19.9033 19.4133 19.8799 19.635 19.9499 19.9383C20.1949 20.9766 20.9533 21.6183 21.8633 22.2483C21.3149 20.93 21.0466 19.7283 21.0233 18.48C20.8016 18.8183 20.7433 19.1916 20.6966 19.6C20.6733 19.74 20.6616 19.88 20.6383 20.0083L20.6266 20.09L20.5566 20.0433C20.3233 19.8916 20.2533 19.6816 20.1716 19.4716C20.1366 19.39 20.1133 19.3083 20.0783 19.2266H20.0083Z" fill="#754D29"/>
<path d="M5.97341 22.0617L5.86841 21.9217L5.92674 21.8867C6.14841 21.35 6.34674 20.8017 6.54507 20.23C6.83674 19.39 7.14008 18.515 7.57174 17.6284L7.65341 17.4534L7.67674 17.6517C7.72341 18.0717 7.66508 18.4334 7.60674 18.7484C7.56008 18.97 7.52508 19.18 7.53674 19.39C7.61841 19.39 7.67674 19.3317 7.75841 19.25C7.84008 19.1684 7.95674 19.0634 8.13174 19.0284L8.22508 19.0167L8.20174 19.11C7.78174 20.4984 7.09341 21.4084 6.02007 21.98L5.97341 22.0617ZM7.58341 17.8734C7.19841 18.6784 6.91841 19.4834 6.65008 20.265C6.46341 20.79 6.28841 21.3034 6.09008 21.7934C7.03508 21.245 7.66508 20.405 8.05008 19.1684C7.95674 19.2034 7.89841 19.2734 7.84008 19.3317C7.74674 19.425 7.64174 19.5184 7.46674 19.495L7.42008 19.4834V19.4367C7.40841 19.1917 7.45508 18.9584 7.49008 18.7134C7.53674 18.4567 7.59508 18.1884 7.58341 17.8734Z" fill="#754D29"/>
<path d="M13.1716 10.3833L13.2183 10.2783C13.4983 9.56668 13.8833 9.01834 14.4083 8.35334L14.4666 8.28334L14.5016 8.36501C14.63 8.63334 14.5483 8.85501 14.4666 9.04168C14.4316 9.12334 14.4083 9.20501 14.3966 9.27501L14.8283 9.21668L14.8866 9.32168L14.8633 9.34501C14.5483 9.85835 14.0583 10.1617 13.2766 10.3483L13.1716 10.3833ZM14.4316 8.50501C13.965 9.08834 13.6266 9.60168 13.37 10.22C14.035 10.045 14.455 9.78835 14.735 9.35668L14.3966 9.40334V9.41501H14.35L14.3383 9.42668C14.3033 9.45001 14.2683 9.42668 14.2566 9.41501L14.14 9.32168L14.2916 9.31001C14.3033 9.20501 14.3383 9.10001 14.3733 9.00668C14.4316 8.84334 14.49 8.69168 14.4316 8.50501Z" fill="#754D29"/>
<path d="M7.24512 23.4383L7.25678 23.3216C7.31512 22.5633 7.52512 21.9216 7.84012 21.1283L7.87512 21.0466L7.93345 21.1166C8.13178 21.3383 8.12012 21.5716 8.09678 21.77C8.08512 21.8516 8.08512 21.945 8.09678 22.015L8.49345 21.8283L8.58678 21.91L8.57512 21.945C8.42345 22.5283 8.03845 22.96 7.35012 23.3683L7.24512 23.4383ZM7.91012 21.28C7.64178 21.98 7.45512 22.5633 7.38512 23.2283C7.96845 22.8666 8.29512 22.4933 8.44678 22.0033L8.13178 22.155V22.1666L8.08512 22.1783L8.07345 22.19C8.03845 22.2133 8.00345 22.2016 7.99178 22.2016L7.85178 22.1433L7.99178 22.085C7.96845 21.98 7.98012 21.875 7.99178 21.77C7.99178 21.595 8.00345 21.4316 7.91012 21.28Z" fill="#754D29"/>
<path d="M4.70166 30.415L4.71333 30.2983C4.80666 29.1317 5.12166 28.14 5.59999 26.9267L5.63499 26.845L5.69333 26.915C5.94999 27.195 6.05499 27.6967 5.97333 28.3267L6.56833 28.0467L6.67333 28.1517L6.66166 28.1867C6.42833 29.0733 5.84499 29.7383 4.78333 30.3567L4.70166 30.415ZM5.66999 27.0667C5.22666 28.1867 4.93499 29.12 4.82999 30.1933C5.79833 29.61 6.32333 29.0033 6.54499 28.1867L5.94999 28.4667L5.93833 28.49L5.89166 28.4783C5.84499 28.4667 5.85666 28.42 5.85666 28.385C5.93833 27.8133 5.86833 27.3467 5.66999 27.0667Z" fill="#754D29"/>
<path d="M13.615 13.475L13.6267 13.3583C13.7317 12.0517 14.6417 10.8617 15.785 10.5583L15.9833 10.5L14.91 11.7133C14.945 11.725 14.98 11.7367 15.0033 11.7483C15.1083 11.7833 15.2017 11.8183 15.295 11.8533C15.435 11.9117 15.5167 11.9933 15.5167 12.075C15.5283 12.1567 15.47 12.2267 15.365 12.3083C14.9917 12.565 14.6183 12.81 14.2217 13.0783L13.615 13.475ZM15.6217 10.7333C14.6533 11.095 13.895 12.11 13.755 13.2533L14.1633 12.985C14.56 12.7167 14.9333 12.4717 15.3067 12.215C15.3767 12.1683 15.4117 12.1217 15.4117 12.0867C15.4117 12.0633 15.3883 12.0167 15.26 11.9583C15.1783 11.9233 15.085 11.8883 14.98 11.8533C14.9217 11.83 14.8633 11.8183 14.7933 11.795L14.7117 11.7717L15.6217 10.7333Z" fill="#754D29"/>
<path d="M10.1617 24.675L10.1384 24.5584C9.8467 23.275 10.36 21.875 11.3634 21.2334L11.5267 21.1284L10.8617 22.61C10.8967 22.61 10.9317 22.61 10.9667 22.61C11.0834 22.61 11.1767 22.61 11.2817 22.6217C11.4334 22.6334 11.5267 22.6917 11.5617 22.7617C11.5967 22.8317 11.5617 22.925 11.48 23.03C11.2 23.38 10.92 23.73 10.6167 24.1034L10.1617 24.675ZM11.2584 21.455C10.4417 22.0967 10.0217 23.2867 10.2317 24.4067L10.535 24.0217C10.8384 23.6484 11.1184 23.31 11.3984 22.96C11.445 22.89 11.4684 22.8434 11.4567 22.8084C11.445 22.7967 11.4217 22.75 11.27 22.7384C11.1767 22.7267 11.0834 22.7267 10.9667 22.7267C10.9084 22.7267 10.85 22.7267 10.7684 22.7267H10.6867L11.2584 21.455Z" fill="#754D29"/>
<path d="M7.74657 32.4217L7.72324 32.305C7.33824 30.6367 8.01491 28.8283 9.30991 28L9.47324 27.895L8.62157 29.7967C8.67991 29.7967 8.73824 29.7967 8.78491 29.7967C8.93657 29.7967 9.06491 29.7967 9.19324 29.82C9.39157 29.8433 9.50824 29.9017 9.54324 29.995C9.57824 30.0883 9.54324 30.1933 9.43824 30.3217C9.07657 30.7767 8.70324 31.2317 8.31824 31.71C8.15491 31.9083 7.99157 32.1183 7.81657 32.3283L7.74657 32.4217ZM9.19324 28.2217C8.07324 29.05 7.50157 30.66 7.80491 32.165C7.94491 31.99 8.08491 31.815 8.22491 31.64C8.60991 31.1617 8.98324 30.7067 9.34491 30.2517C9.41491 30.1583 9.44991 30.0883 9.42657 30.0417C9.40324 29.9833 9.30991 29.9483 9.16991 29.9367C9.05324 29.925 8.92491 29.925 8.77324 29.9133C8.69157 29.9133 8.60991 29.9133 8.51657 29.9017H8.43491L9.19324 28.2217Z" fill="#754D29"/>
<path d="M15.5283 8.785L15.54 8.66833C15.7033 7.36166 16.66 6.22999 17.8267 5.96166L18.0133 5.91499L16.8817 7.08166C16.9167 7.09333 16.9517 7.10499 16.975 7.11666C17.08 7.16333 17.1733 7.19833 17.2667 7.23333C17.4067 7.30333 17.4767 7.37333 17.4883 7.46666C17.4883 7.54833 17.4417 7.61833 17.325 7.68833C16.94 7.92166 16.555 8.155 16.1583 8.4L15.5283 8.785ZM17.6517 6.12499C16.66 6.43999 15.8667 7.42 15.68 8.55166L16.1 8.295C16.5083 8.05 16.8933 7.81666 17.2667 7.58333C17.3367 7.53666 17.3717 7.50166 17.3717 7.46666C17.3717 7.44333 17.36 7.39666 17.22 7.33833C17.1383 7.30333 17.0567 7.26833 16.94 7.22166C16.8817 7.19833 16.8233 7.17499 16.765 7.15166L16.6833 7.11666L17.6517 6.12499Z" fill="#754D29"/>
<path d="M16.5667 10.7567L16.5783 10.64C16.7417 9.33335 17.6983 8.20169 18.865 7.93335L19.0517 7.88669L17.92 9.05335C17.955 9.06502 17.99 9.07669 18.0133 9.08835C18.1183 9.13502 18.2117 9.17002 18.305 9.20502C18.445 9.27502 18.515 9.34502 18.5267 9.43835C18.5267 9.52002 18.48 9.59002 18.3633 9.66002C17.9783 9.89335 17.5933 10.1267 17.1967 10.3717L16.5667 10.7567ZM18.69 8.09669C17.6983 8.41169 16.905 9.39168 16.7183 10.5233L17.1383 10.2667C17.5467 10.0217 17.9317 9.78835 18.305 9.55502C18.375 9.50835 18.41 9.47335 18.41 9.43835C18.41 9.41502 18.3983 9.36835 18.2583 9.31002C18.1767 9.27502 18.095 9.24002 17.9783 9.19335C17.92 9.17002 17.8617 9.14668 17.8033 9.12335L17.7217 9.08835L18.69 8.09669Z" fill="#754D29"/>
<path d="M18.5266 6.42834L18.5966 6.32334C19.3083 5.215 20.6733 4.60834 21.8283 4.87667L22.0149 4.92334L20.4866 5.48334C20.5099 5.50667 20.5333 5.53 20.5566 5.565C20.6383 5.64667 20.7083 5.71667 20.7666 5.79834C20.8599 5.92667 20.8949 6.02 20.8599 6.10167C20.8249 6.17167 20.7433 6.21834 20.6149 6.23001C20.1716 6.27667 19.7283 6.32334 19.2499 6.35834L18.5266 6.42834ZM21.2566 4.935C20.3233 4.935 19.3433 5.44834 18.7599 6.28834L19.2499 6.24167C19.7166 6.19501 20.1599 6.16001 20.6149 6.11334C20.6966 6.10167 20.7549 6.07834 20.7666 6.05501C20.7783 6.04334 20.7783 5.98501 20.6849 5.86834C20.6266 5.79834 20.5683 5.72834 20.4866 5.64667C20.4516 5.6 20.4049 5.55334 20.3583 5.50667L20.2999 5.43667L21.6066 4.95834C21.4783 4.94667 21.3733 4.935 21.2566 4.935Z" fill="#754D29"/>
<path d="M17.9551 23.8234L17.8967 23.6834C17.4417 22.5517 17.2667 21.385 17.3251 20.0084L17.3367 19.7867L17.4417 19.985C17.9551 21.0234 18.5384 22.2017 18.0017 23.6834L17.9551 23.8234ZM17.4417 20.2417C17.4067 21.455 17.5701 22.47 17.9551 23.485C18.3401 22.2134 17.8967 21.175 17.4417 20.2417Z" fill="#754D29"/>
<path d="M14.1399 34.65C13.9416 34.65 13.7316 34.65 13.5216 34.6383C13.3466 34.6267 13.1599 34.6267 12.9733 34.6033C9.37993 34.3467 5.94993 32.8533 3.3016 30.3917C3.14993 30.2517 3.00993 30.1117 2.86993 29.9717L2.72993 29.8433V29.6567C2.71827 29.12 2.93993 28.1633 3.14993 27.3233C3.18493 27.1717 3.21993 27.055 3.2316 26.985C3.42993 26.0167 3.6866 25.0367 3.98993 24.0567C6.33493 16.4967 10.3599 10.2317 15.5983 5.92666C16.6716 5.05166 18.1416 4.18833 19.3433 3.73333C20.7199 3.20833 22.1083 3.06833 23.5666 3.30166C24.6983 3.47666 25.7833 3.885 26.7166 4.49166C27.6383 5.08666 29.1783 6.21833 29.2016 7.18666C29.2133 7.67666 29.2133 8.17833 29.2016 8.68L29.1899 9.18166L28.6999 9.135C27.9999 9.065 27.9183 8.4 27.8833 8.085C27.8599 7.92166 27.8366 7.71166 27.7783 7.65333C26.4949 6.59166 24.7449 6.17166 23.0883 6.52166C22.2249 6.70833 19.6933 7.88666 19.4249 10.8033C19.2149 13.4867 21.3849 15.82 22.5866 16.0183L23.1816 16.1117L22.9366 16.66C22.5866 17.465 21.9916 18.8067 22.6799 21C23.6949 24.22 26.8799 24.71 28.2099 24.78L28.9099 24.815L28.6183 25.445C28.5599 25.5617 28.4666 25.7483 28.4199 25.865C27.5683 27.5683 26.4133 29.0967 25.0133 30.4033C22.2716 32.9467 18.7016 34.4517 14.9683 34.6383C14.6766 34.65 14.4083 34.65 14.1399 34.65ZM3.66327 29.47C3.74493 29.5517 3.83827 29.6333 3.9316 29.7267C6.42826 32.0367 9.65993 33.4367 13.0316 33.6817C13.2066 33.6933 13.3816 33.705 13.5449 33.705C13.9999 33.7167 14.4433 33.7167 14.8866 33.6933C18.3983 33.5183 21.7583 32.095 24.3366 29.7033C25.5966 28.525 26.6466 27.16 27.4399 25.6433C24.5933 25.305 22.5399 23.7417 21.7699 21.28C21.1049 19.1683 21.4899 17.6983 21.8516 16.765C20.2066 16.065 18.2349 13.5333 18.4566 10.7217C18.7366 7.61833 21.3033 5.93833 22.8549 5.61166C24.5466 5.25 26.3199 5.57666 27.7433 6.49833C27.3816 6.13666 26.8449 5.705 26.1916 5.285C25.3633 4.74833 24.4066 4.38666 23.4033 4.235C22.1083 4.03666 20.8716 4.15333 19.6466 4.62C18.5499 5.02833 17.1849 5.83333 16.1816 6.65C11.0716 10.8383 7.16326 16.9517 4.86493 24.3367C4.57327 25.2817 4.32827 26.2383 4.12993 27.1717C4.11827 27.2417 4.08327 27.37 4.04827 27.545C3.94327 28.0117 3.70993 28.945 3.66327 29.47Z" fill="#3B2314"/>
<path d="M32.2699 9.63667C32.1415 9.66001 32.0132 9.67167 31.8965 9.69501C29.0965 10.1267 29.0615 10.1383 26.6582 10.5467C26.8682 9.68334 26.9965 9.04167 27.1015 8.36501L27.1365 8.14334C27.2415 7.44334 27.3465 6.69667 27.4982 5.62334C28.7815 6.56834 30.1932 7.81667 32.0015 9.40334C32.0832 9.47334 32.1765 9.55501 32.2699 9.63667Z" fill="#CA902B"/>
<path d="M24.7706 8.8168C24.926 8.05283 24.4326 7.30754 23.6686 7.15216C22.9047 6.99678 22.1594 7.49014 22.004 8.25411C21.8486 9.01808 22.342 9.76337 23.1059 9.91875C23.8699 10.0741 24.6152 9.58077 24.7706 8.8168Z" fill="#3B2314"/>
<path d="M23.8163 9.26698C24.2234 9.04453 24.3731 8.53419 24.1507 8.1271C23.9282 7.72001 23.4179 7.57033 23.0108 7.79278C22.6037 8.01523 22.454 8.52557 22.6765 8.93266C22.8989 9.33975 23.4093 9.48943 23.8163 9.26698Z" fill="#603917"/>
<path d="M24.01 8.13169C24.3192 8.13169 24.57 7.88097 24.57 7.57169C24.57 7.26241 24.3192 7.01169 24.01 7.01169C23.7007 7.01169 23.45 7.26241 23.45 7.57169C23.45 7.88097 23.7007 8.13169 24.01 8.13169Z" fill="white"/>
<path d="M21.8281 0.350006C22.7381 0.700006 23.6365 1.06167 24.1148 2.07667C24.2431 1.73834 24.1265 1.47001 24.0565 1.13167C24.4181 1.27167 24.6748 1.49334 24.8965 1.75001C25.1298 2.00667 25.2348 2.34501 25.3748 2.68334C25.5148 2.53167 25.5031 2.38001 25.5148 2.24001C25.5148 2.18167 25.5031 2.11167 25.5731 2.08834C25.6548 2.05334 25.6898 2.12334 25.7365 2.17001C25.9465 2.41501 26.0048 2.71834 26.1098 3.04501C26.2381 2.90501 26.3665 2.77667 26.5298 2.71834C26.6698 2.67167 26.7865 2.69501 26.7865 2.85834C26.7865 3.55834 27.1482 4.18834 27.1948 4.88834C27.2065 4.99334 27.2181 5.09834 27.2065 5.19167C27.1598 5.49501 26.9965 5.58834 26.7048 5.47167C26.5648 5.41334 26.4248 5.32001 26.2848 5.23834C25.2231 4.53834 24.0448 4.28167 22.7965 4.23501C22.3298 4.21167 21.8631 4.23501 21.3965 4.14167C20.7431 4.01334 20.2765 3.65167 19.9965 3.05667C19.6465 2.32167 19.5415 1.54001 19.4248 0.746673C19.4131 0.688339 19.4015 0.606673 19.4598 0.560006C19.5181 0.525006 19.5648 0.571673 19.6115 0.606673C20.1015 1.02667 20.6965 1.14334 21.2915 1.23667C21.5598 1.28334 21.8165 1.35334 22.0265 1.54001C22.0615 1.57501 22.1081 1.63334 22.1665 1.58667C22.2131 1.55167 22.2015 1.48167 22.2015 1.43501C22.1898 1.23667 22.1198 1.05001 22.0265 0.875006C21.9331 0.711673 21.8398 0.548339 21.7581 0.396673C21.7931 0.396673 21.8165 0.373339 21.8281 0.350006Z" fill="#F92A3B"/>
<path d="M23.7416 17.9783C24.2549 18.27 24.8733 18.41 25.5149 18.375C28.1749 18.2233 27.7433 15.4117 27.4866 13.545C27.3349 12.46 27.2766 11.5383 27.1249 10.465C27.1016 10.2783 27.0316 9.75332 26.9383 9.32166C26.5183 10.6167 26.3899 11.585 24.6283 12.6817C23.6366 13.3 22.5983 14.21 22.4466 15.4467C22.2833 16.59 22.8666 17.4883 23.7416 17.9783Z" fill="#F92A3B"/>
<path d="M32.2699 9.63665C32.1415 9.65998 32.0132 9.67165 31.8965 9.69498L27.0898 8.46998L27.1015 8.37665L27.1365 8.15498L31.9899 9.40332C32.0832 9.47332 32.1765 9.55498 32.2699 9.63665Z" fill="#B6802C"/>
</svg>
