<svg width="16" height="16" viewBox="0 0 16 16" fill="none" xmlns="http://www.w3.org/2000/svg">
<path d="M8.14949 0.0693211C8.38949 0.186654 8.48015 0.383988 8.47482 0.650654C8.46415 1.11999 8.47482 1.58932 8.46949 2.05865C8.46949 2.17065 8.50149 2.21865 8.62415 2.23465C10.7468 2.51732 12.2828 3.62132 13.2375 5.53065C13.5095 6.07999 13.6748 6.66665 13.7388 7.27465C13.7655 7.50399 13.7655 7.50399 13.9948 7.50399C14.4215 7.50399 14.8535 7.50399 15.2802 7.50399C15.3495 7.50399 15.4135 7.50399 15.4828 7.51465C15.7815 7.55732 15.9575 7.75465 15.9362 8.03732C15.9202 8.29332 15.7175 8.46932 15.4295 8.47465C14.9602 8.47999 14.4908 8.47465 14.0215 8.47465C13.7708 8.47465 13.7708 8.47465 13.7442 8.71999C13.6482 9.56265 13.3655 10.3467 12.9122 11.0613C12.0215 12.4533 10.7682 13.3227 9.15749 13.6693C8.98149 13.7067 8.80015 13.7333 8.62415 13.7547C8.51215 13.7653 8.48015 13.8133 8.48015 13.92C8.48549 14.4267 8.48549 14.9333 8.48015 15.4347C8.47482 15.792 8.14949 16.016 7.82949 15.8933C7.65882 15.824 7.55749 15.696 7.53615 15.5093C7.49882 15.184 7.52549 14.8587 7.52015 14.5333C7.51482 14.3467 7.50949 14.16 7.52549 13.9787C7.54149 13.808 7.46682 13.7493 7.31215 13.7387C6.90682 13.7067 6.51749 13.6053 6.13882 13.472C5.24282 13.168 4.46949 12.6667 3.81882 11.984C3.04549 11.168 2.54415 10.2027 2.32549 9.09332C2.29349 8.93865 2.26682 8.77865 2.25615 8.61865C2.25082 8.49599 2.19749 8.46399 2.08015 8.46399C1.61082 8.46932 1.14149 8.45865 0.672154 8.46932C0.405487 8.47465 0.208154 8.38932 0.0908203 8.14932C0.0908203 8.04799 0.0908203 7.94132 0.0908203 7.83999C0.20282 7.58399 0.416154 7.49865 0.677487 7.49865C1.14149 7.50399 1.60549 7.49865 2.06949 7.49865C2.18682 7.49865 2.24015 7.46665 2.25615 7.33865C2.38949 6.17599 2.83215 5.13599 3.59482 4.24532C4.58682 3.08799 5.84549 2.41599 7.36549 2.22932C7.49349 2.21332 7.53082 2.16532 7.53082 2.04799C7.52549 1.58932 7.53082 1.13065 7.53082 0.671988C7.53082 0.405321 7.60549 0.181321 7.87215 0.0639877C7.94149 0.0693211 8.04815 0.0693211 8.14949 0.0693211ZM3.16282 7.98399C3.14149 10.608 5.29082 12.816 7.97349 12.8213C10.6348 12.8267 12.8002 10.6827 12.8162 8.01065C12.8322 5.34932 10.6562 3.16799 8.00015 3.15732C5.36549 3.15199 3.14682 5.32265 3.16282 7.98399Z" fill="white"/>
<path d="M10.6989 8C10.6989 9.50401 9.48823 10.6987 7.97357 10.704C6.6349 10.7093 5.2749 9.64267 5.2749 7.984C5.2749 6.47466 6.46423 5.27999 7.98957 5.27999C9.63756 5.27999 10.7256 6.64 10.6989 8Z" fill="white"/>
</svg>
