<svg width="35" height="35" viewBox="0 0 35 35" fill="none" xmlns="http://www.w3.org/2000/svg">
<path d="M17.0567 6.77834L15.0267 4.77167L11.1417 3.90834L7.86339 4.77167L5.18006 7.16334L2.55506 11.1767L1.08506 15.2017L0.641724 18.0833L1.08506 22.5283L2.45006 25.865L4.63172 28.4317L6.39339 29.6333L10.8151 31.1267L17.0567 29.19L20.6617 30.73L24.6517 30.8933L29.1317 29.7267L32.1417 26.4717L34.2767 22.5283V17.0217L32.6317 11.48L29.6451 6.73167L25.6901 3.90834L21.8051 4.27001L18.6201 6.18334L17.0567 6.77834Z" fill="#FCEBE3"/>
<path d="M23.5784 26.8567C26.5295 26.8567 28.9218 24.4644 28.9218 21.5133C28.9218 18.5623 26.5295 16.17 23.5784 16.17C20.6274 16.17 18.2351 18.5623 18.2351 21.5133C18.2351 24.4644 20.6274 26.8567 23.5784 26.8567Z" fill="#F92A3B"/>
<path d="M34.9417 20.6967C34.8017 21.735 34.65 22.7617 34.2884 23.7417C32.6434 28.0817 29.54 30.6833 24.955 31.395C22.4 31.7917 19.9967 31.1967 17.7917 29.8433C17.57 29.7033 17.395 29.7033 17.1734 29.8433C15.2367 31.0217 13.1367 31.57 10.8734 31.4533C9.43838 31.3833 8.07338 31.0333 6.77838 30.415C6.73171 30.3917 6.67338 30.3683 6.62671 30.3333C6.34671 30.1583 6.26505 29.9017 6.38171 29.6333C6.51005 29.365 6.79004 29.2483 7.09338 29.3767C7.75838 29.6567 8.43504 29.9367 9.14671 30.1C11.6434 30.66 14.0117 30.3567 16.2517 29.1083C16.4617 28.9917 16.485 28.9333 16.2867 28.77C13.9184 26.7517 12.635 24.1617 12.25 21.105C11.9817 18.9233 12.3317 16.8117 12.8917 14.7117C13.055 14.105 13.2417 13.5217 13.44 12.9267C13.5684 12.5417 13.8484 12.3667 14.1517 12.46C14.4784 12.565 14.6067 12.8683 14.4784 13.2767C13.9884 14.7 13.615 16.1467 13.4167 17.6283C12.9734 20.9767 13.5334 24.0917 15.785 26.7167C17.5817 28.805 19.8567 30.0883 22.645 30.345C25.76 30.625 28.3967 29.575 30.6367 27.4633C32.7367 25.48 33.6817 22.9833 33.845 20.1483C33.9617 18.13 33.53 16.205 32.9817 14.2917C32.34 12.0517 31.3134 9.975 29.855 8.14333C29.05 7.12833 28.1634 6.18333 27.02 5.53C24.3717 4.00167 20.895 4.445 18.7134 6.59167C17.6634 7.61833 16.7534 8.76167 16.0067 10.0333C15.9484 10.1383 15.8784 10.255 15.8084 10.3483C15.5984 10.64 15.3067 10.71 15.0384 10.5467C14.7817 10.3833 14.7117 10.1033 14.875 9.8C15.33 8.97167 15.8667 8.20167 16.4384 7.455C16.7884 7.01167 16.87 7.11667 16.4034 6.65C13.6267 3.89667 9.27504 3.885 6.48671 6.63833C4.23505 8.86667 2.78838 11.5617 1.93671 14.595C1.48171 16.24 1.12005 17.9083 1.14338 19.6117C1.17838 21.5483 1.58671 23.415 2.56671 25.1183C3.03338 25.935 3.59338 26.67 4.27005 27.3233C4.36338 27.4167 4.46838 27.51 4.56171 27.615C4.84171 27.9067 4.86505 28.1867 4.64338 28.4317C4.42171 28.6767 4.09505 28.665 3.80338 28.3967C1.89005 26.6233 0.758381 24.43 0.280048 21.8633C-0.151619 19.565 0.128381 17.325 0.688381 15.0967C1.36505 12.355 2.45005 9.8 4.21171 7.57167C5.29671 6.195 6.48671 4.95833 8.12004 4.2C11.0834 2.835 14.7 3.45333 17.0567 5.75167C17.1034 5.79833 17.15 5.845 17.1967 5.89167C17.5117 6.20667 17.5117 6.20667 17.8267 5.90333C19.4484 4.32833 21.385 3.5 23.6484 3.52333C26.1334 3.54667 28.14 4.62 29.8084 6.41667C32.5267 9.345 33.9734 12.8567 34.6734 16.73C34.7667 17.255 34.8484 17.78 34.93 18.305C34.9417 19.0983 34.9417 19.8917 34.9417 20.6967Z" fill="#4E280F"/>
<path d="M23.5667 27.5917C20.2417 27.58 17.4767 24.8383 17.5117 21.5133C17.5467 18.095 20.2183 15.4817 23.6017 15.4583C26.9383 15.4467 29.6683 18.2117 29.6567 21.5483C29.645 24.8733 26.9033 27.5917 23.5667 27.5917ZM23.5667 26.4717C26.3317 26.4717 28.525 24.3017 28.525 21.5367C28.5367 18.76 26.3433 16.555 23.5783 16.5433C20.825 16.5433 18.62 18.7367 18.6083 21.4783C18.6083 24.2667 20.8017 26.4717 23.5667 26.4717Z" fill="#4E280F"/>
</svg>
