<svg width="500" height="775" viewBox="0 0 500 775" fill="none" xmlns="http://www.w3.org/2000/svg">
<path d="M490.624 342.039C502.103 209.096 568.989 27.0502 721.321 2.90329C728.652 1.82249 736.922 0.993023 744 0.859279C782.203 0.945055 819.668 15.0443 851.604 34.767C923.845 80.5156 976.118 159.487 980.143 245.831C986.27 358.115 914.776 459.75 835.216 538.924C743.404 630.04 635.18 703.563 522.924 765.856C514.578 770.725 506.486 774.647 497.277 775.224C489.261 775.107 481.068 771.896 474.067 767.99C367.708 718.175 263.125 661.73 172.064 588.607C95.8676 527.588 27.0543 450.276 6.21208 355.365C-9.20408 285.255 5.89701 210.126 42.4318 148.861C77.2668 90.186 140.411 30.9758 210.501 28.4399C373.105 22.2713 448.174 192.616 485.552 323.424C486.845 329.861 490.954 337.052 490.624 342.039Z" fill="#E0522D" fill-opacity="0.05"/>
</svg>
