<svg width="35" height="35" viewBox="0 0 35 35" fill="none" xmlns="http://www.w3.org/2000/svg">
<path d="M34.8133 7.40833C34.685 8.05 34.5916 8.69167 34.44 9.32167C33.6 12.8217 31.9666 15.925 29.6566 18.6783C29.5283 18.83 29.47 18.97 29.505 19.1917C29.9016 21.665 29.26 23.835 27.5566 25.6783C26.6816 26.6233 25.4333 26.635 24.5116 25.7133C23.8583 25.0717 23.2166 24.4183 22.575 23.7767C22.47 23.6717 22.4 23.5783 22.2016 23.6483C18.9583 24.7333 15.5983 25.1767 12.2033 25.2817C12.1217 25.2817 12.0283 25.2933 11.9117 25.305C12.4367 26.1333 12.81 27.0083 12.985 27.9417C13.44 30.4617 12.7866 32.6667 11.0483 34.5567C10.9317 34.685 10.7917 34.7667 10.6517 34.86C10.5117 34.86 10.3833 34.86 10.2433 34.86C8.99499 33.775 8.25999 32.3867 7.94499 30.7767C7.69999 29.5517 7.79332 28.3267 8.15499 27.1367C8.17832 27.055 8.27165 26.9617 8.17832 26.8917C8.09665 26.8217 8.01499 26.9033 7.92165 26.9267C5.15665 27.7083 2.68332 27.16 0.548323 25.2117C0.0816563 24.78 0.093323 24.43 0.559989 23.9867C2.92832 21.7117 6.63832 21.2917 9.44999 22.9717C9.54332 23.03 9.63665 23.0883 9.76498 23.1583C9.81165 22.3533 9.84665 21.5833 9.90499 20.8133C10.1033 18.1533 10.535 15.54 11.3867 12.9967C11.4683 12.7633 11.4333 12.6233 11.2583 12.4483C10.6167 11.83 9.98665 11.2 9.36832 10.5583C8.45832 9.63667 8.45832 8.38833 9.40332 7.51333C11.2467 5.78667 13.4283 5.15667 15.9133 5.565C16.1116 5.6 16.2283 5.55333 16.3566 5.43667C19.3083 2.95167 22.6333 1.24833 26.425 0.489999C28 0.174999 29.5983 0.046666 31.1966 0.384999C33.39 0.851666 34.405 1.91333 34.7666 4.14167C34.7783 4.22333 34.755 4.32833 34.8366 4.39833C34.8133 5.37833 34.8133 6.39333 34.8133 7.40833Z" fill="#4E280F"/>
<path d="M25.4334 11.34C25.2234 11.8416 25.305 12.0983 25.7717 12.39C27.3234 13.335 29.0034 13.8133 30.8234 13.72C30.9867 13.7083 31.15 13.72 31.3484 13.72C30.9634 14.5016 30.52 15.2366 30.0417 15.9366C28.5367 18.1183 26.7984 20.0666 24.36 21.2683C22.6684 22.1083 20.8834 22.7033 19.04 23.1C16.555 23.6483 14.035 23.8816 11.48 23.9166C11.2 23.9166 11.095 23.8816 11.1067 23.555C11.165 20.3933 11.5384 17.29 12.3667 14.2333C13.4984 10.01 15.9834 6.85998 19.6817 4.59665C20.2067 4.26998 20.7317 3.95498 21.3267 3.66331C21.3267 4.08331 21.315 4.47998 21.3267 4.87665C21.35 5.85665 21.56 6.80165 21.8984 7.71165C22.085 8.20165 22.365 8.34165 22.8784 8.21332C23.17 8.56331 23.3917 8.95998 23.6017 9.36832C23.6017 9.44998 23.555 9.51998 23.5084 9.57831C23.3684 9.78831 23.3334 10.01 23.485 10.2316C23.6367 10.465 23.87 10.5116 24.1384 10.465C24.2317 10.4533 24.325 10.395 24.43 10.395C24.815 10.6633 25.1767 10.955 25.4334 11.34Z" fill="#FCEBE3"/>
<path d="M25.4333 11.34C25.0833 11.06 24.745 10.78 24.43 10.4533C24.395 10.36 24.4533 10.2783 24.4766 10.1967C24.6516 9.69499 24.3366 9.32165 23.8116 9.37999C23.73 9.39165 23.6366 9.42665 23.555 9.37999C23.275 9.02999 23.0416 8.64499 22.8666 8.23665C23.2633 7.92165 23.3216 7.71165 23.1466 7.23332C22.6566 5.91499 22.5166 4.56165 22.7966 3.18499C22.82 3.03332 22.8783 2.95165 23.0183 2.89332C25.1066 2.06499 27.2533 1.50499 29.5166 1.52832C30.3216 1.53999 31.1033 1.66832 31.8616 1.98332C32.445 2.21665 32.83 2.61332 33.0633 3.18499C33.4716 4.22332 33.565 5.30832 33.495 6.40499C33.3666 8.32999 32.8766 10.1733 32.165 11.97C32.095 12.1333 32.0133 12.215 31.8383 12.25C29.925 12.6233 28.1516 12.25 26.4833 11.2467C26.04 10.9667 25.8183 10.99 25.4333 11.34Z" fill="#FCEBE3"/>
<path d="M10.4533 25.6317C12.18 27.72 12.18 31.1383 10.4533 33.1217C8.72666 31.2433 8.72666 27.6033 10.4533 25.6317Z" fill="#FCEBE3"/>
<path d="M9.41498 24.5817C7.52498 26.3083 3.88498 26.32 1.93665 24.5933C3.80331 22.9833 7.10498 22.7383 9.41498 24.5817Z" fill="#FCEBE3"/>
<path d="M14.8167 6.825C14.385 7.29167 13.9767 7.79334 13.615 8.31834C13.0317 9.15834 12.53 10.0567 12.1217 11.0017C12.0284 11.2117 11.9817 11.2933 11.7717 11.0833C11.2934 10.5817 10.78 10.0917 10.29 9.59C9.89335 9.19334 9.90502 8.83167 10.3017 8.45834C11.4917 7.33834 12.9034 6.80167 14.525 6.76667C14.63 6.755 14.7234 6.73167 14.8167 6.825Z" fill="#F92A3B"/>
<path d="M28.2683 20.2417C28.3033 20.825 28.245 21.385 28.105 21.945C27.8483 23.0067 27.3467 23.94 26.5883 24.7333C26.215 25.13 25.8533 25.1417 25.48 24.7683C24.955 24.255 24.4417 23.73 23.9283 23.2167C23.8117 23.1 23.7883 23.0417 23.9633 22.96C25.515 22.2833 26.9383 21.42 28.175 20.265C28.1867 20.2533 28.2217 20.2533 28.2683 20.2417Z" fill="#F92A3B"/>
<path d="M23.5667 9.38C23.975 9.205 24.2667 9.25167 24.4883 9.49667C24.7217 9.765 24.71 10.045 24.4533 10.4417C23.94 10.7217 23.5083 10.605 23.345 10.15C23.2167 9.84667 23.345 9.60167 23.5667 9.38Z" fill="#4E280F"/>
<path d="M29.295 6.41666C28.9216 6.41666 28.63 6.13666 28.63 5.76333C28.6183 5.37833 28.9216 5.075 29.295 5.075C29.6566 5.075 29.96 5.37833 29.9716 5.74C29.9833 6.10166 29.68 6.41666 29.295 6.41666Z" fill="#4E280F"/>
</svg>
