<svg width="35" height="35" viewBox="0 0 35 35" fill="none" xmlns="http://www.w3.org/2000/svg">
<path d="M16.6716 21.1283C16.7883 21.49 17.0683 21.5483 17.3949 21.5133C17.9899 21.455 17.9899 21.455 18.0249 22.0617C18.2116 25.3983 18.3983 28.7467 18.5849 32.0833C18.5966 32.2117 18.6083 32.3283 18.6199 32.4567C18.6433 32.795 18.8416 32.97 19.1683 32.9817C20.0316 32.9933 20.8949 33.005 21.7583 32.9817C22.2366 32.97 22.4233 32.6317 22.2249 32.1533C21.9099 31.395 21.5833 30.6483 21.2566 29.9017C21.1866 29.7383 21.1516 29.5633 21.1516 29.3883C21.1516 28.0933 21.1633 26.81 21.1516 25.515C21.1399 24.78 21.4199 24.115 21.5599 23.415C21.7116 22.68 21.9099 21.9567 22.0849 21.2217C22.1199 21.0583 22.1549 20.9183 22.3533 20.8367C24.2199 20.055 25.4099 18.62 26.2733 16.8467C26.8449 15.68 27.2183 14.4317 27.6733 13.2183C27.7783 12.9383 27.8949 12.6583 28.0233 12.3783C28.0699 12.2733 28.0816 12.0867 28.2333 12.1217C28.3849 12.145 28.5599 12.1917 28.6416 12.3783C28.8049 12.7167 29.0033 13.055 29.2133 13.37C29.6799 14.0467 30.2399 14.6183 30.8933 15.1083C31.3366 15.435 31.6516 15.3417 31.8499 14.8167C32.0599 14.2683 32.3166 13.72 32.5849 13.195C32.6549 13.0667 32.7133 12.9967 32.8766 12.985C33.5649 12.915 34.0199 12.5183 34.2533 11.8767C34.4166 11.4683 34.5333 11.0833 34.6616 10.71C34.6849 10.6517 34.6733 10.57 34.7666 10.5467C34.7666 10.4067 34.7666 10.2783 34.7666 10.1383C33.3666 8.295 31.9199 6.51 30.2516 4.91167C30.1233 4.795 30.0999 4.67834 30.1349 4.52667C30.1933 4.24667 30.2516 3.955 30.2983 3.66334C30.3683 3.16167 30.0533 2.88167 29.5749 3.02167C29.1899 3.12667 28.8049 3.27834 28.4549 3.465C28.2916 3.55834 28.1633 3.54667 27.9999 3.44167C26.0283 2.17 23.9166 1.73834 21.6183 2.19334C21.3383 2.25167 21.1166 2.36834 21.0933 2.67167C21.0699 2.95167 21.2449 3.115 21.5016 3.22C22.5749 3.675 23.6249 4.17667 24.6399 4.74834C24.8383 4.865 24.8383 4.935 24.7099 5.11C24.0333 5.95 23.4966 6.87167 22.8199 7.7C22.4349 8.17834 21.9333 8.47 21.3499 8.65667C20.1249 9.065 18.8533 9.21667 17.5816 9.32167C15.2833 9.50834 12.9849 9.49667 10.6749 9.60167C8.9716 9.68334 7.2566 9.70667 5.59994 10.1967C4.95827 10.3833 4.3516 10.675 3.74494 11.0483C3.63993 10.4067 3.2666 9.99834 2.79993 9.63667C2.2166 9.18167 2.13493 8.68 2.4966 8.03834C2.54327 7.945 2.61327 7.86334 2.6366 7.77C2.7066 7.54834 2.65993 7.35 2.4616 7.19834C2.26327 7.05834 2.0416 7.035 1.87827 7.21C0.909935 8.17834 -0.163399 9.87 0.349934 11.4683C0.571602 12.1683 1.01493 12.705 1.5866 13.1483C1.6916 13.23 1.81993 13.2767 1.74994 13.4633C1.1666 14.945 1.36493 16.4383 1.74994 17.92C1.94827 18.6667 2.16993 19.4017 2.2516 20.1833C2.37993 21.3033 2.13493 22.365 1.39993 23.17C0.676601 23.975 0.816605 24.78 0.956604 25.6667C1.3066 27.895 1.6216 30.1233 1.95993 32.3633C2.02993 32.8183 2.1816 32.97 2.6366 32.9817C3.42994 32.9933 4.23494 32.9933 5.02827 32.9817C5.59994 32.97 5.80993 32.6433 5.5766 32.1067C5.41327 31.7333 5.28493 31.3483 5.0866 30.9983C4.54994 30.0067 4.37493 28.9333 4.2466 27.8367C4.1416 26.915 4.0016 25.9933 3.8616 25.0717C3.83827 24.885 3.87327 24.7683 4.0366 24.6633C5.3316 23.765 6.54494 22.7617 7.55993 21.5483C7.79327 21.28 8.0266 21 8.21327 20.6967C8.3766 20.44 8.52827 20.405 8.80827 20.4867C10.7099 21.035 12.6583 21.3617 14.6299 21.4783C15.0616 21.5017 15.1783 21.42 15.3066 21C15.3649 20.6967 15.2599 20.5333 14.9099 20.4283C14.5483 20.3233 14.1749 20.335 13.8133 20.3C12.3549 20.16 10.9316 19.8917 9.51994 19.53C9.1466 19.4367 9.13494 19.3783 9.2866 19.005C9.41494 18.7017 9.47327 18.3983 9.2166 18.13C8.78493 17.85 8.4466 17.9433 8.22494 18.445C7.8866 19.2383 7.4316 19.95 6.8716 20.615C5.8566 21.8283 4.68994 22.8783 3.38327 23.765C3.2666 23.8467 3.1616 23.9167 3.0566 23.9983C2.7766 24.2083 2.64827 24.465 2.7066 24.8383C2.92827 26.39 3.13827 27.9533 3.35993 29.505C3.38327 29.6917 3.41827 29.855 3.1966 29.96C2.82327 30.1467 2.72993 30.1 2.6716 29.6917C2.41493 28.0233 2.1816 26.355 1.92493 24.6867C1.88993 24.465 1.9716 24.29 2.08827 24.1267C2.5316 23.4967 2.92827 22.855 3.1616 22.1083C3.49994 20.9883 3.39494 19.8917 3.11494 18.7833C2.9166 18.0133 2.6716 17.255 2.55494 16.4617C2.41493 15.5283 2.4266 14.6067 2.82327 13.72C3.41827 12.4017 4.50327 11.6783 5.83327 11.2583C6.7316 10.9783 7.65327 10.8733 8.5866 10.815C10.3016 10.6983 12.0166 10.6633 13.7316 10.605C15.6216 10.535 17.5233 10.5117 19.4016 10.2083C20.2299 10.08 21.0583 9.905 21.8516 9.625C22.7499 9.33334 23.4266 8.79667 23.9633 8.05C24.4533 7.37334 24.8966 6.67334 25.3983 6.00834C25.6549 5.67 25.7016 5.61167 26.0866 5.82167C26.3433 5.96167 26.6349 5.92667 26.9033 5.82167C27.2299 5.67 27.4516 5.40167 27.7199 5.18C28.1166 4.87667 28.5366 4.59667 29.0266 4.39834C28.9449 4.795 28.8283 5.15667 28.6649 5.495C28.4666 5.915 28.5366 6.13667 28.9449 6.39334C29.2133 6.475 29.4466 6.405 29.5983 6.17167C29.7383 5.96167 29.8316 5.99667 29.9833 6.14834C30.9049 7.09334 31.7799 8.085 32.5966 9.11167C32.8999 9.46167 33.1566 9.835 33.4483 10.185C33.5183 10.2667 33.5999 10.3717 33.5649 10.4883C33.4599 10.8617 33.3666 11.2467 33.1799 11.585C33.0516 11.8067 32.8299 11.865 32.5966 11.8417C32.0483 11.7717 31.4766 11.8067 30.9283 11.6667C30.0533 11.55 29.2133 11.3283 28.4316 10.92C28.0233 10.71 27.6616 10.43 27.3583 10.0683C27.0083 9.63667 26.5999 9.68334 26.3083 10.1617C26.2149 10.465 26.3666 10.6867 26.5299 10.8967C26.6699 11.0833 26.8449 11.2467 27.0199 11.3983C27.1483 11.515 27.1833 11.6317 27.1016 11.7833C26.5883 12.81 26.2966 13.9183 25.8766 14.98C25.3866 16.2167 24.8499 17.4183 23.9049 18.3983C23.5899 18.725 23.2749 19.04 22.8783 19.2617C22.5633 19.4833 22.2249 19.67 21.8633 19.7983C21.4199 19.95 21.1749 20.2417 21.0699 20.7083C20.7549 22.05 20.4166 23.3917 20.1016 24.7333C20.0549 24.955 20.0433 25.1767 20.0433 25.3983C20.0433 26.7517 20.0433 28.1167 20.0433 29.47C20.0433 29.54 20.0433 29.61 20.0433 29.6683C20.0316 29.8317 19.9266 29.9133 19.7866 29.925C19.6116 29.9367 19.5883 29.7967 19.5883 29.6683C19.5883 29.1667 19.5299 28.665 19.5066 28.1517C19.4483 27.125 19.3899 26.0867 19.3316 25.06C19.2733 24.15 19.2266 23.2517 19.1799 22.3417C19.1449 21.5367 19.0983 20.7317 19.0283 19.9267C18.9816 19.425 18.6783 19.215 18.1999 19.32C17.9433 19.4483 17.8266 19.67 17.8383 19.9383C17.8499 20.2067 17.7333 20.3233 17.4766 20.3233C17.3599 20.3233 17.2316 20.3583 17.1149 20.3817C16.7066 20.5333 16.5899 20.72 16.6716 21.1283Z" fill="#4E280F"/>
<path d="M9.20502 18.165C9.47336 18.48 9.33336 18.795 9.19336 19.0983C9.01836 19.4833 9.01836 19.4833 9.41502 19.5767C11.1417 20.0317 12.8917 20.335 14.665 20.4517C15.12 20.4867 15.2484 20.58 15.3534 20.9883C15.6917 20.9883 16.03 20.9883 16.3567 20.9883C16.485 20.9883 16.6017 21 16.6717 21.1167C16.6834 20.6733 16.8 20.545 17.2434 20.4983C17.3134 20.4867 17.3834 20.475 17.4417 20.475C17.815 20.51 17.99 20.3817 17.9084 19.9733C17.8617 19.74 17.99 19.565 18.165 19.425C17.9784 19.2383 17.7334 19.2033 17.4767 19.1917C16.1934 19.1217 14.9217 19.0167 13.6617 18.795C12.53 18.5967 11.41 18.3517 10.325 18.0017C9.94003 17.9083 9.54336 17.815 9.20502 18.165Z" fill="#FCEBE3"/>
<path d="M9.20501 18.165C9.76501 17.8617 10.29 18.1067 10.8267 18.27C12.25 18.69 13.7083 18.97 15.19 19.1217C15.995 19.2033 16.7883 19.2967 17.5933 19.32C17.7917 19.3317 17.9783 19.4017 18.1767 19.4483C18.6784 19.355 18.9 19.53 18.9233 20.0317C19.11 23.2517 19.285 26.4717 19.4717 29.6917C19.4717 29.715 19.4717 29.7383 19.4717 29.7617C19.5067 29.9017 19.4367 30.135 19.565 30.1467C19.7517 30.1583 19.95 30.0417 20.1367 29.9717C20.2067 29.9483 20.1717 29.8783 20.1717 29.8317C20.16 28.2683 20.1367 26.705 20.16 25.1417C20.1717 24.4183 20.4633 23.7417 20.615 23.0417C20.79 22.2483 21.0233 21.455 21.1867 20.65C21.2683 20.2883 21.455 20.09 21.7934 19.9617C22.2134 19.81 22.6217 19.6117 22.9717 19.3317C23.7417 18.5267 24.1617 17.5233 24.57 16.52C25.0134 15.4467 25.3167 14.3383 25.445 13.1833C25.5034 12.67 25.4917 12.1567 25.4684 11.6433C25.4334 10.955 25.6083 10.4183 26.3317 10.2083C26.6467 9.77666 26.9617 9.76499 27.3 10.1733C27.8717 10.8733 28.6534 11.2233 29.4817 11.48C29.9367 11.62 30.4034 11.76 30.8934 11.7717C31.29 11.7483 31.4767 11.4217 31.6984 11.1767C32.1184 10.6867 32.41 10.115 32.62 9.50832C32.6784 9.35666 32.7017 9.20499 32.6084 9.05332C31.7334 7.90999 30.7534 6.84832 29.7267 5.80999C29.5634 6.14832 29.3767 6.41666 28.9567 6.35832C28.385 6.35832 27.9184 6.05499 27.4167 5.86832C27.2534 5.80999 27.1017 5.68166 26.915 5.73999C26.46 5.89166 26.0517 5.80999 25.7017 5.48332C25.1534 6.11332 24.6867 6.78999 24.255 7.48999C23.38 8.91332 22.0967 9.63666 20.4983 9.93999C18.8067 10.2667 17.0917 10.395 15.3767 10.465C13.055 10.5583 10.7217 10.5583 8.41168 10.745C7.08168 10.85 5.75168 11.0367 4.57335 11.7367C3.02168 12.6583 2.34502 14.035 2.43835 15.82C2.48502 16.7417 2.75335 17.605 2.98668 18.48C3.29002 19.635 3.50002 20.7783 3.15001 21.9683C2.91668 22.7617 2.52002 23.4733 2.01835 24.1267C1.87835 24.3017 1.84335 24.465 1.86668 24.675C2.13502 26.4367 2.40335 28.1983 2.64835 29.9717C2.68335 30.2283 2.76501 30.2283 2.96335 30.1583C3.54668 29.96 3.54668 29.9717 3.47668 29.3767C3.27835 27.8483 3.06835 26.3317 2.84668 24.8033C2.78835 24.4417 2.90501 24.2083 3.19668 24.01C4.41001 23.2167 5.53002 22.295 6.51002 21.21C7.25668 20.3933 7.91001 19.5183 8.33001 18.48C8.52835 18.0483 8.75001 17.9667 9.20501 18.165Z" fill="#FCEBE3"/>
<path d="M26.3433 10.2083C25.795 10.2083 25.41 10.5933 25.3983 11.165C25.3867 11.585 25.3983 11.9933 25.3983 12.4133C25.3983 13.6733 25.095 14.8633 24.675 16.0417C24.325 16.9983 23.8933 17.92 23.345 18.7833C23.2283 18.97 23.0533 19.1217 22.9833 19.3433C23.8117 18.8183 24.4067 18.0833 24.9083 17.2667C25.7133 15.9483 26.1567 14.4667 26.6817 13.02C26.8333 12.6 26.985 12.18 27.2067 11.7833C27.3 11.6317 27.2883 11.5267 27.1367 11.4217C26.9033 11.2583 26.7283 11.0483 26.5417 10.8267C26.3783 10.64 26.2967 10.4533 26.3433 10.2083Z" fill="#FCEBE3"/>
<path d="M32.6083 9.05334C32.5966 9.61334 32.3166 10.08 32.0483 10.5467C31.7566 11.0367 31.4066 11.4917 30.8933 11.7717C31.5116 11.935 32.1533 11.9233 32.795 11.9583C33.0633 11.97 33.2266 11.7833 33.3083 11.55C33.425 11.2233 33.5183 10.885 33.6466 10.5583C33.6933 10.4417 33.67 10.3717 33.6 10.2783C33.2733 9.87001 32.935 9.46168 32.6083 9.05334Z" fill="#FCEBE3"/>
<path d="M1.48171 9.62498C1.00337 10.6167 1.29504 11.7483 2.18171 12.3317C2.25171 12.3783 2.29837 12.425 2.38004 12.355C2.99837 11.8417 2.85837 10.9783 2.41504 10.64C2.05337 10.3483 1.71504 10.045 1.48171 9.62498Z" fill="#FCEBE3"/>
<path d="M26.9148 5.74002C27.3815 5.93836 27.8598 6.13669 28.3265 6.34669C28.5482 6.44002 28.7465 6.46336 28.9682 6.35836C28.5832 6.07836 28.5365 5.90336 28.7698 5.48336C28.9682 5.11002 29.0615 4.70169 29.1665 4.24669C28.5715 4.48002 28.0815 4.79502 27.6265 5.16836C27.3815 5.36669 27.1482 5.55336 26.9148 5.74002Z" fill="#FCEBE3"/>
<path d="M23.7533 3.09166C24.3366 3.45333 24.9433 3.75666 25.515 4.11833C25.795 4.30499 26.0633 4.50332 26.3316 4.70166C26.4133 4.77166 26.4833 4.81832 26.5883 4.72499C26.7866 4.53832 26.9966 4.35166 27.23 4.15333C26.1333 3.51166 25.0016 3.11499 23.7533 3.09166Z" fill="#F92A3B"/>
<path d="M3.69823 31.9784C4.43323 31.9784 4.43323 31.9783 4.15323 31.3133C3.97823 30.8817 3.97823 30.8817 3.54656 31.0333C3.45323 31.0683 3.35989 31.0917 3.25489 31.1267C2.79989 31.2783 2.82323 31.2783 2.90489 31.7333C2.93989 31.9433 3.0449 31.99 3.2199 31.9784C3.38323 31.9784 3.5349 31.9784 3.69823 31.9784Z" fill="#6C4747"/>
<path d="M20.3115 31.9783C21.0465 31.9783 21.0348 31.99 20.7665 31.29C20.6498 30.975 20.5098 30.835 20.1948 31.0217C20.1132 31.0683 20.0315 31.08 19.9382 31.115C19.5998 31.2433 19.4715 31.5467 19.5882 31.8617C19.6348 31.9667 19.7165 31.9783 19.7982 31.9783C19.9848 31.9783 20.1482 31.9783 20.3115 31.9783Z" fill="#6C4747"/>
<path d="M31.1033 13.9533C31.2783 13.5917 31.4299 13.2767 31.5933 12.9267C31.0683 12.845 30.5666 12.775 30.0183 12.6933C30.2983 13.195 30.6949 13.545 31.1033 13.9533Z" fill="#F92A3B"/>
<path d="M29.5282 8.16669C29.7965 8.16669 30.0415 7.89836 30.0299 7.64169C30.0182 7.37336 29.7849 7.16336 29.5165 7.16336C29.2365 7.16336 29.0149 7.39669 29.0265 7.67669C29.0382 7.95669 29.2715 8.16669 29.5282 8.16669Z" fill="#4E280F"/>
</svg>
