<svg width="35" height="35" viewBox="0 0 35 35" fill="none" xmlns="http://www.w3.org/2000/svg">
<path d="M5.13341 17.5117L2.06508 21.0583L1.24841 23.2983L3.48841 23.975L4.85341 24.1967L4.91175 34.3933H18.1884H30.1934V23.6833L33.8684 23.5783L31.5118 19.145L29.4584 17.5L5.13341 17.5117Z" fill="#FCEBE3"/>
<path d="M0.0467009 23.345C1.38837 21.3383 2.7417 19.32 4.0717 17.3017C4.3167 16.9283 4.5967 16.765 5.0517 16.765C10.43 16.7767 15.82 16.7767 21.1984 16.7767C21.2917 16.7767 21.385 16.7767 21.4667 16.7767C21.875 16.8 22.1434 17.0917 22.1434 17.4767C22.1434 17.8733 21.875 18.165 21.4667 18.1767C20.755 18.1883 20.0317 18.1767 19.32 18.1767C19.18 18.1767 19.0517 18.1767 18.9234 18.1767C18.865 18.2933 18.935 18.34 18.9817 18.3983C19.9267 19.8217 20.8717 21.2333 21.8167 22.6567C21.9217 22.8083 22.0267 22.9017 22.225 22.9017C25.7367 22.9017 29.2484 22.9017 32.7484 22.9017C32.7834 22.9017 32.8184 22.89 32.8534 22.8783C32.8884 22.7617 32.7951 22.6917 32.7367 22.61C31.8151 21.2333 30.8934 19.8567 29.9834 18.4683C29.8434 18.2583 29.6917 18.165 29.4234 18.1767C28.8284 18.2 28.245 18.1883 27.65 18.1767C27.16 18.1767 26.8684 17.8967 26.88 17.465C26.88 17.0333 27.1717 16.765 27.6734 16.765C28.4784 16.765 29.2834 16.765 30.0884 16.765C30.415 16.765 30.6484 16.8933 30.8234 17.1617C32.1417 19.145 33.4717 21.1283 34.7901 23.1117C34.9651 23.38 35.035 23.6483 34.8717 23.94C34.7084 24.2433 34.4401 24.3133 34.125 24.3017C33.1684 24.29 32.2117 24.3133 31.2667 24.29C30.9401 24.2783 30.8701 24.395 30.8701 24.6983C30.8817 27.79 30.8817 30.8817 30.8701 33.9617C30.8701 34.7083 30.6717 34.9183 29.925 34.9183C21.63 34.9183 13.3467 34.9183 5.0517 34.9183C4.30504 34.9183 4.1067 34.7083 4.1067 33.9733C4.1067 30.8933 4.1067 27.8133 4.1067 24.745C4.1067 24.3017 4.1067 24.3017 3.6517 24.3017C2.73004 24.3017 1.80837 24.29 0.886701 24.3017C0.513368 24.3133 0.221701 24.1967 0.0350342 23.8583C0.0467009 23.7067 0.0467009 23.5317 0.0467009 23.345ZM16.7767 19.845C16.66 20.02 16.59 20.1133 16.5317 20.2067C15.7267 21.42 14.91 22.6217 14.1167 23.835C13.8834 24.185 13.615 24.3367 13.1834 24.3367C10.7684 24.325 8.3417 24.3367 5.9267 24.325C5.6117 24.325 5.49504 24.4067 5.49504 24.745C5.5067 27.5333 5.5067 30.3333 5.49504 33.1217C5.49504 33.4717 5.58837 33.565 5.93837 33.565C9.40337 33.5533 12.8684 33.5533 16.3217 33.5533C16.765 33.5533 16.765 33.5533 16.765 33.0983C16.765 28.805 16.765 24.5117 16.765 20.2183C16.7767 20.125 16.7767 20.0433 16.7767 19.845ZM18.2 19.8567C18.1884 19.985 18.1884 20.0317 18.1884 20.0783C18.1884 24.4533 18.1884 28.8167 18.1767 33.1917C18.1767 33.4833 18.2817 33.5533 18.55 33.5533C22.05 33.5417 25.5384 33.5417 29.0384 33.5533C29.3417 33.5533 29.4467 33.4717 29.4467 33.1567C29.435 30.3567 29.435 27.545 29.4467 24.745C29.4467 24.4183 29.3534 24.325 29.0267 24.325C26.6467 24.3367 24.255 24.325 21.875 24.3367C21.3734 24.3367 21.0584 24.185 20.7784 23.7533C19.9617 22.47 19.0984 21.21 18.2 19.8567ZM2.06504 22.89C2.19337 22.9017 2.26337 22.9133 2.3217 22.9133C5.7867 22.9133 9.25171 22.9133 12.705 22.925C12.95 22.925 13.0667 22.82 13.195 22.6333C14.1167 21.245 15.0384 19.8567 15.9717 18.4683C16.0184 18.3983 16.1 18.34 16.0767 18.2C15.96 18.2 15.8317 18.2 15.715 18.2C12.67 18.2 9.62504 18.2 6.5917 18.2C6.1367 18.2 5.63504 18.06 5.25004 18.2583C4.85337 18.4683 4.69004 18.9817 4.43337 19.3667C3.6517 20.5217 2.8817 21.6767 2.06504 22.89Z" fill="#4E280F"/>
<path d="M17.1501 0.0466703C17.9901 0.25667 18.7484 0.618337 19.3084 1.30667C20.4284 2.66 20.5567 4.56167 19.6351 6.11334C19.0284 7.12834 18.1651 7.93334 17.2784 8.69167C16.1934 9.60167 15.0967 10.5 14.0001 11.3983C13.5451 11.7717 13.2651 11.7717 12.8217 11.3983C11.2934 10.1267 9.67174 8.93667 8.27174 7.51334C7.49008 6.72 6.83674 5.83334 6.63841 4.70167C6.23008 2.50834 7.51341 0.525004 9.48508 0.093337C9.54341 0.0816703 9.59007 0.058337 9.64841 0.0350037C10.1034 0.0350037 10.5584 0.0350037 11.0134 0.0350037C11.9234 0.268337 12.6817 0.71167 13.2417 1.47C13.3584 1.62167 13.4284 1.62167 13.5451 1.47C14.1051 0.71167 14.8751 0.25667 15.7734 0.0350037C16.2401 0.0466703 16.6951 0.0466703 17.1501 0.0466703ZM18.8067 3.82667C18.7951 3.75667 18.7834 3.58167 18.7601 3.41834C18.5151 1.79667 16.6951 0.933337 15.3301 1.785C14.7117 2.17 14.3617 2.765 14.1167 3.41834C13.9767 3.80334 13.7201 4.00167 13.4051 4.00167C13.0901 4.00167 12.8334 3.80334 12.6934 3.41834C12.5651 3.06834 12.3901 2.73 12.1684 2.42667C11.4684 1.48167 10.3601 1.19 9.33341 1.68C8.13174 2.25167 7.65341 3.73334 8.23674 5.04C8.52841 5.69334 8.99508 6.23 9.49674 6.72C10.6517 7.85167 11.9467 8.82 13.1834 9.84667C13.3701 10.01 13.4984 9.92834 13.6617 9.8C14.2801 9.28667 14.9101 8.785 15.5284 8.27167C16.4501 7.50167 17.3951 6.74334 18.1184 5.775C18.5267 5.215 18.7951 4.60834 18.8067 3.82667Z" fill="#F92A3B"/>
<path d="M20.8718 8.00334C20.8718 6.615 21.7468 5.44834 23.0768 5.18C23.9751 4.99334 24.7918 5.215 25.4451 5.89167C25.5734 6.03167 25.6784 6.13667 25.8534 5.92667C27.0901 4.50334 29.7968 4.935 30.3801 7.315C30.5901 8.17834 30.4501 9.00667 29.9951 9.765C29.4701 10.64 28.7234 11.305 27.9768 11.9583C27.4051 12.46 26.8334 12.95 26.2501 13.44C25.8301 13.79 25.5268 13.8017 25.1301 13.4517C23.9984 12.46 22.7734 11.5617 21.8051 10.395C21.2218 9.71834 20.8484 8.97167 20.8718 8.00334ZM29.0384 8.015C29.0151 7.89834 29.0034 7.74667 28.9568 7.595C28.7934 7.04667 28.4551 6.65 27.8484 6.58C27.3001 6.51 26.9151 6.79 26.6351 7.23334C26.5301 7.40834 26.4484 7.595 26.3668 7.78167C26.2034 8.16667 25.9584 8.365 25.6434 8.35334C25.2818 8.33 25.0718 8.12 24.9551 7.79334C24.8501 7.49 24.6984 7.21 24.4768 6.97667C23.8934 6.37 22.9601 6.475 22.5401 7.19834C22.1434 7.88667 22.2134 8.65667 22.7851 9.38C23.5668 10.3717 24.5818 11.1067 25.5151 11.935C25.6318 12.0283 25.7134 12.005 25.8068 11.9117C26.7051 11.13 27.6618 10.4067 28.4318 9.485C28.7934 9.065 29.0151 8.59834 29.0384 8.015Z" fill="#F92A3B"/>
<path d="M24.5117 16.7883C24.9201 16.7883 25.2117 17.1033 25.2001 17.5117C25.1884 17.92 24.8734 18.2117 24.4767 18.2C24.0917 18.1883 23.8 17.885 23.8 17.5C23.8 17.08 24.1034 16.7767 24.5117 16.7883Z" fill="#4E280F"/>
</svg>
