<svg width="22" height="22" viewBox="0 0 22 22" fill="none" xmlns="http://www.w3.org/2000/svg">
<path d="M0.13208 17.7907C0.300747 17.2994 0.52808 16.8374 0.887413 16.4487C1.48141 15.818 2.22208 15.4734 3.08008 15.4147C3.25608 15.4 3.32208 15.3267 3.35875 15.1727C3.47608 14.74 3.60075 14.3147 3.72541 13.8894C3.75475 13.794 3.77675 13.6914 3.85008 13.6254C3.97475 13.5154 4.12141 13.4934 4.26075 13.574C4.41475 13.662 4.45875 13.8087 4.40741 13.9774C4.26808 14.4687 4.12875 14.96 3.98208 15.444C3.93075 15.6127 3.95275 15.7227 4.07741 15.862C4.77408 16.6247 5.46341 17.3947 6.14541 18.1793C6.32141 18.3773 6.52675 18.348 6.72475 18.326C6.85675 18.3187 6.76875 18.216 6.74675 18.1647C6.55608 17.6954 6.38008 17.226 6.22608 16.7493C5.87408 15.664 5.69075 14.5494 5.73475 13.4054C5.77141 12.4374 5.95475 11.4914 6.24075 10.5674C6.31408 10.318 6.31408 10.318 6.06475 10.318C5.46341 10.318 5.46341 10.318 5.29475 10.89C5.14808 11.396 5.00141 11.8947 4.85475 12.4007C4.78141 12.6574 4.61275 12.7747 4.41475 12.7234C4.20941 12.6647 4.12875 12.4814 4.19475 12.2247C4.20941 12.166 4.23141 12.1 4.24608 12.0414C4.39275 11.5354 4.53208 11.0367 4.68608 10.5307C4.73741 10.3694 4.71541 10.3034 4.52475 10.3107C4.15808 10.318 4.06275 10.2154 4.06275 9.84135C4.06275 9.33535 4.06275 8.83669 4.06275 8.33069C4.06275 7.83935 4.34141 7.63402 4.81808 7.78069C5.41941 7.97135 6.02808 8.14735 6.61475 8.38202C7.06208 8.55802 7.50208 8.53602 7.94941 8.49202C8.23541 8.46269 8.52875 8.43335 8.81475 8.42602C8.99075 8.41869 9.11541 8.34535 9.25475 8.25735C9.73141 7.95669 9.93675 7.54602 9.90008 6.98869C9.89275 6.86402 9.92941 6.73202 9.95875 6.61469C10.0027 6.45335 9.98075 6.37269 9.79008 6.31402C9.00541 6.05735 8.50675 5.50735 8.29408 4.70802C8.23541 4.49535 8.22075 4.27535 8.23541 4.05535C8.24275 3.93069 8.20608 3.86469 8.06675 3.84269C7.82475 3.79869 7.72208 3.67402 7.72941 3.43202C7.77341 1.92135 8.96141 0.81402 10.2814 0.72602C12.0707 0.608687 13.6034 2.29535 13.0901 4.32669C12.9801 4.75202 12.7967 5.14069 12.5107 5.47802C12.4447 5.55135 12.4227 5.61002 12.5181 5.68335C13.5301 6.49735 14.0141 7.61202 14.3294 8.82935C14.5347 9.64335 14.5934 10.4794 14.6301 11.3154C14.6447 11.572 14.6301 11.8287 14.5787 12.078C14.5494 12.2394 14.6081 12.2614 14.7401 12.2614C15.0334 12.254 15.3194 12.2467 15.6127 12.2614C15.8181 12.276 15.8621 12.188 15.8621 12.0047C15.8547 10.7434 15.8621 9.48202 15.8621 8.22069C15.8621 7.82469 15.9354 7.45802 16.2434 7.17935C16.4634 6.98135 16.7127 6.86402 17.0134 6.86402C18.2747 6.86402 19.5361 6.85669 20.7974 6.86402C21.3987 6.86402 21.9121 7.37002 21.9121 7.97869C21.9194 9.26202 21.9194 10.5454 21.9121 11.8287C21.9121 12.4227 21.4061 12.9214 20.8047 12.9287C20.3354 12.936 19.8661 12.936 19.4041 12.9287C19.2134 12.9214 19.1254 12.9727 19.1474 13.178C19.1621 13.3614 19.1474 13.5447 19.1547 13.728C19.1621 13.992 19.0887 14.2194 18.9054 14.4027C18.8247 14.4834 18.8101 14.564 18.8541 14.6667C19.2574 15.5394 19.3087 16.4634 19.1694 17.3947C19.1181 17.7467 19.2281 18.0694 19.2501 18.4067C19.2867 18.832 19.1474 19.0227 18.7221 19.0374C18.5534 19.0447 18.4947 19.1107 18.4581 19.2647C17.9081 21.3034 15.5467 22.022 13.9701 20.636C13.5521 20.2694 13.2734 19.7927 13.1487 19.25C13.1121 19.0814 13.0314 19.0374 12.8701 19.0374C10.8167 19.0374 8.75608 19.0447 6.70275 19.0374C6.52675 19.0374 6.45341 19.0887 6.42408 19.2647C6.37275 19.558 6.20408 19.6607 5.90341 19.602C5.52941 19.5287 5.59541 19.5067 5.41941 19.8293C4.90608 20.7973 3.76941 21.3034 2.69141 21.0394C1.60608 20.7754 0.81408 19.8 0.806747 18.7074C0.806747 18.4874 0.740747 18.3847 0.520747 18.3627C0.359413 18.348 0.22008 18.282 0.13208 18.1354C0.13208 18.018 0.13208 17.908 0.13208 17.7907ZM18.5387 16.412C18.5607 15.884 18.4361 15.3634 18.2087 14.8574C18.1427 14.7107 18.0547 14.6447 17.8861 14.652C17.0281 14.6594 16.1701 14.6594 15.3121 14.652C14.9601 14.652 14.7914 14.5347 14.7987 14.2927C14.8061 14.0654 14.9674 13.9554 15.3121 13.9554C16.2654 13.9554 17.2261 13.9554 18.1794 13.9554C18.4214 13.9554 18.4801 13.8894 18.4874 13.6547C18.4947 13.4787 18.4801 13.3027 18.4874 13.1267C18.4947 12.9654 18.4214 12.9214 18.2747 12.9214C16.9767 12.9287 15.6787 12.9214 14.3807 12.9214C14.2781 12.9214 14.1901 12.9507 14.1094 13.024C13.8307 13.2807 13.4934 13.42 13.1194 13.4714C12.5694 13.552 12.0121 13.4934 11.4621 13.5154C11.2641 13.5227 11.1981 13.6034 11.1981 13.816C11.1981 14.0067 11.3447 13.9554 11.4401 13.9554C12.1587 13.9627 12.8701 13.9554 13.5887 13.9554C13.8527 13.9554 14.0214 14.0874 14.0287 14.2927C14.0361 14.5054 13.8674 14.6447 13.5887 14.652C13.5301 14.652 13.4787 14.652 13.4201 14.652C12.7601 14.652 12.1001 14.6594 11.4401 14.6447C11.2421 14.6447 11.1834 14.7107 11.1907 14.9014C11.1981 15.576 11.1981 16.2507 11.1907 16.918C11.1907 17.3287 11.0294 17.512 10.6261 17.5487C9.90741 17.6074 9.18141 17.5634 8.45541 17.578C8.13275 17.5854 7.80275 17.5854 7.48008 17.578C7.28941 17.5707 7.25275 17.644 7.33341 17.8054C7.38475 17.9007 7.42875 17.996 7.45808 18.0987C7.50941 18.2894 7.62675 18.3407 7.81741 18.3334C9.19608 18.326 10.5821 18.326 11.9607 18.326C12.2614 18.326 12.2467 18.326 12.3054 18.0327C12.5694 16.698 13.3247 15.752 14.6081 15.3194C15.8987 14.8794 17.0941 15.136 18.1207 16.06C18.2821 16.192 18.4141 16.302 18.5387 16.412ZM8.53608 10.318C8.10341 10.318 7.67075 10.318 7.23808 10.318C7.12075 10.318 7.04008 10.3474 6.99608 10.472C6.71008 11.3667 6.49741 12.276 6.44608 13.2147C6.38008 14.3807 6.54875 15.5174 6.91541 16.6247C7.01075 16.9107 7.01075 16.9034 7.42875 16.896C7.65608 16.896 7.61941 16.7274 7.64875 16.6027C7.76608 16.126 8.03008 15.7594 8.49941 15.5907C8.68275 15.5247 8.71208 15.4294 8.71208 15.2607C8.71941 14.5714 8.66075 13.8894 8.74875 13.2C8.85875 12.386 9.16675 11.6894 9.89275 11.2347C10.0467 11.1394 10.3034 11.1467 10.3401 10.956C10.3694 10.7947 10.2594 10.604 10.2227 10.4207C10.1934 10.2594 10.1421 10.1787 9.96608 10.2814C9.90741 10.318 9.81208 10.3034 9.73875 10.3034C9.34275 10.318 8.93941 10.318 8.53608 10.318ZM15.7594 18.3334C16.6174 18.3334 17.4754 18.3334 18.3334 18.3334C18.5094 18.3334 18.5681 18.2747 18.5314 18.106C18.2601 16.7567 17.1087 15.7447 15.6494 15.818C14.3221 15.8767 13.3247 16.7714 13.0241 18.062C12.9654 18.3113 12.9801 18.3334 13.2294 18.3334C14.0727 18.3334 14.9161 18.3334 15.7594 18.3334ZM12.4961 10.934C12.8261 10.934 13.1634 10.934 13.4934 10.934C13.9187 10.934 13.9334 10.934 13.9041 10.5014C13.8454 9.57002 13.6694 8.66069 13.2881 7.80269C13.0021 7.16469 12.6207 6.60735 12.0634 6.16735C11.9387 6.07202 11.8287 6.03535 11.6747 6.12335C11.4914 6.22602 11.2861 6.30669 11.0734 6.32869C10.7727 6.35802 10.6554 6.51202 10.6187 6.80535C10.5894 7.09135 10.5894 7.10602 10.8534 7.02535C11.3301 6.89335 11.7407 7.00335 12.0634 7.37735C12.3861 7.75135 12.4374 8.17669 12.2174 8.62402C12.1001 8.85869 11.9241 9.04202 11.7114 9.18869C11.4694 9.35735 11.2201 9.52602 10.9634 9.67269C10.8241 9.75335 10.7801 9.84869 10.8241 10.0027C10.8974 10.252 10.9634 10.5087 11.0221 10.7654C11.0514 10.9047 11.1247 10.9487 11.2641 10.9414C11.6747 10.934 12.0854 10.934 12.4961 10.934ZM12.2981 11.6307C11.9754 11.6307 11.6454 11.6234 11.3227 11.6307C11.0954 11.6307 10.8681 11.6014 10.6481 11.6674C9.99541 11.8507 9.65808 12.32 9.51141 12.9507C9.32808 13.7427 9.44541 14.542 9.41608 15.3414C9.41608 15.4514 9.48208 15.4807 9.58475 15.4807C9.81208 15.4807 10.0394 15.466 10.2667 15.4807C10.4647 15.4954 10.5234 15.4147 10.5234 15.224C10.5234 14.7034 10.5014 14.1754 10.5527 13.6547C10.6041 13.156 10.8461 12.8847 11.3374 12.8334C11.8581 12.7747 12.3861 12.826 12.9067 12.7967C13.5154 12.76 13.8381 12.474 13.9481 11.8727C13.9774 11.6894 13.9407 11.6087 13.7354 11.616C13.2441 11.638 12.7674 11.6307 12.2981 11.6307ZM9.65808 3.15335C9.92941 3.15335 10.1934 3.15335 10.4647 3.15335C11.1541 3.15335 11.3741 3.36602 11.3741 4.04802C11.3741 4.46602 11.3814 4.88402 11.3741 5.30202C11.3741 5.48535 11.4401 5.49269 11.5721 5.40469C11.6087 5.38269 11.6454 5.36069 11.6747 5.33135C12.3861 4.80335 12.7014 3.74735 12.4154 2.83802C12.1514 1.98735 11.3301 1.38602 10.4647 1.39335C9.56275 1.40069 8.74875 2.04602 8.50675 2.91869C8.46275 3.08735 8.49941 3.15335 8.68275 3.15335C9.00541 3.14602 9.32808 3.15335 9.65808 3.15335ZM18.7221 12.2467C19.3747 12.2467 20.0274 12.2467 20.6727 12.2467C21.0394 12.2467 21.2374 12.056 21.2521 11.6894C21.2594 11.4034 21.2521 11.1247 21.2594 10.8387C21.2594 10.6994 21.2081 10.648 21.0761 10.648C19.6387 10.648 18.2014 10.648 16.7641 10.648C16.6174 10.648 16.5661 10.6994 16.5661 10.846C16.5734 11.2274 16.5734 11.6087 16.5661 11.99C16.5587 12.1807 16.6101 12.2467 16.8154 12.2467C17.4461 12.2394 18.0841 12.2467 18.7221 12.2467ZM3.15341 16.104C2.24408 16.17 1.54008 16.588 1.06341 17.3727C0.843413 17.732 0.850747 17.7467 1.26875 17.8347C1.30541 17.842 1.33475 17.8494 1.37141 17.864C2.77208 18.1867 4.17275 18.5094 5.57341 18.8247C5.63208 18.8394 5.70541 18.8834 5.74208 18.81C5.77141 18.7514 5.70541 18.7074 5.66875 18.6707C5.63941 18.634 5.60275 18.5974 5.57341 18.5607C4.89141 17.798 4.20941 17.0427 3.53475 16.28C3.43208 16.148 3.32208 16.0747 3.15341 16.104ZM18.8907 8.63869C19.5361 8.63869 20.1814 8.63869 20.8267 8.63869C21.3254 8.63869 21.2594 8.69735 21.2594 8.19135C21.2594 7.69269 21.0834 7.51669 20.5774 7.51669C19.5287 7.51669 18.4801 7.51669 17.4314 7.51669C16.6614 7.51669 16.5661 7.61935 16.5587 8.38202C16.5587 8.59469 16.6321 8.64602 16.8301 8.63869C17.5121 8.63135 18.2014 8.63869 18.8907 8.63869ZM15.8107 19.03C15.2241 19.03 14.6374 19.03 14.0507 19.03C13.8014 19.03 13.7941 19.0447 13.8747 19.2794C14.1534 20.086 14.9601 20.658 15.8034 20.6653C16.6614 20.6653 17.4827 20.064 17.7541 19.25C17.8127 19.0814 17.7761 19.0227 17.5927 19.03C16.9987 19.0373 16.4047 19.03 15.8107 19.03ZM3.42475 20.416C3.91608 20.4014 4.41475 20.1154 4.77408 19.58C4.87675 19.4333 4.87675 19.36 4.67141 19.316C3.69608 19.1033 2.72808 18.876 1.76008 18.6487C1.51075 18.59 1.48875 18.612 1.50341 18.8687C1.56208 19.7047 2.36875 20.416 3.42475 20.416ZM18.9347 9.33535C18.2821 9.33535 17.6294 9.33535 16.9767 9.33535C16.5221 9.33535 16.5734 9.26935 16.5587 9.76069C16.5587 9.91469 16.6174 9.95869 16.7567 9.95869C18.1867 9.95869 19.6167 9.95869 21.0541 9.95869C21.1934 9.95869 21.2741 9.91469 21.2521 9.76802C21.2447 9.70935 21.2447 9.65069 21.2521 9.59935C21.2814 9.39402 21.1934 9.33535 20.9881 9.33535C20.3061 9.34269 19.6167 9.33535 18.9347 9.33535ZM10.6774 4.80335C10.6774 4.54669 10.6774 4.29002 10.6774 4.04069C10.6774 3.90869 10.6261 3.85002 10.4867 3.85002C10.0321 3.85735 9.57741 3.85002 9.13008 3.85002C9.00541 3.85002 8.96141 3.90135 8.94675 4.02602C8.85141 4.92802 9.55541 5.72735 10.4647 5.74202C10.6187 5.74202 10.6847 5.68335 10.6774 5.52935C10.6701 5.28735 10.6774 5.04535 10.6774 4.80335ZM9.18141 9.62869C9.47475 9.61402 9.76808 9.67269 10.0394 9.47469C10.4281 9.18869 10.8387 8.94669 11.2421 8.68269C11.3521 8.60935 11.4621 8.52869 11.5501 8.41869C11.6894 8.22802 11.7041 7.98602 11.5721 7.83202C11.4401 7.67069 11.1981 7.61935 10.9927 7.72202C10.9194 7.75869 10.8461 7.81002 10.7801 7.86135C10.5234 8.08135 10.2521 8.28669 10.0101 8.52869C9.63608 8.89535 9.23275 9.18135 8.67541 9.13735C8.61675 9.13002 8.56541 9.15202 8.53608 9.21802C8.44075 9.45269 8.55075 9.63602 8.80008 9.63602C8.92475 9.62868 9.04941 9.62869 9.18141 9.62869ZM9.38675 16.8887C9.59941 16.8887 9.81208 16.896 10.0247 16.8887C10.5601 16.874 10.5014 17.0134 10.5087 16.3607C10.5087 16.236 10.4501 16.1847 10.3254 16.1847C9.86341 16.1847 9.40875 16.1774 8.94675 16.192C8.63875 16.1994 8.44075 16.3753 8.34541 16.676C8.29408 16.83 8.32341 16.9034 8.49941 16.896C8.79275 16.8813 9.09341 16.8887 9.38675 16.8887ZM5.48541 9.62869C5.67608 9.62869 5.86675 9.62869 6.05741 9.62869C6.13075 9.62869 6.23341 9.62869 6.22608 9.54069C6.20408 9.35002 6.36541 9.18135 6.27008 8.99802C6.26275 8.98335 6.23341 8.97602 6.21141 8.96869C5.76408 8.82202 5.32408 8.68269 4.87675 8.52869C4.76675 8.49202 4.73741 8.52869 4.73741 8.63869C4.73741 8.91735 4.73741 9.18869 4.73741 9.46735C4.73741 9.59202 4.79608 9.62869 4.90608 9.62869C5.10408 9.62135 5.29475 9.62869 5.48541 9.62869ZM7.37008 9.62869C7.37008 9.62135 7.37008 9.62135 7.37008 9.62869C7.48008 9.62135 7.59741 9.63602 7.70741 9.62135C7.85408 9.60669 7.82475 9.48935 7.82475 9.39402C7.82475 9.30602 7.82475 9.21802 7.70008 9.21802C7.48741 9.21069 7.27475 9.23269 7.07675 9.28402C6.96675 9.30602 6.92275 9.40135 6.93008 9.51135C6.93741 9.62135 7.03275 9.62868 7.12075 9.63602C7.20141 9.62868 7.28208 9.62869 7.37008 9.62869Z" fill="#E0522D"/>
</svg>
